<svg id="Layer_2" height="512" viewBox="0 0 32 32" width="512" xmlns="http://www.w3.org/2000/svg" data-name="Layer 2"><circle cx="16" cy="16.65" r="3.19"/><path d="m23.37 20.38h-.66v-.67a.54023.54023 0 0 0 -1.08 0v.67h-.67a.5351.5351 0 0 0 0 1.07h.67v.68a.54035.54035 0 0 0 1.08 0v-.68h.66a.5351.5351 0 0 0 0-1.07z"/><path d="m16 1a15 15 0 1 0 15 15 15.00543 15.00543 0 0 0 -15-15zm4.77 22.12a2.60871 2.60871 0 1 1 3.56-3.67 2.64191 2.64191 0 0 1 -3.56 3.67zm4.23-4.69a3.769 3.769 0 0 0 -1.74-1.13 3.99264 3.99264 0 0 0 -1.09-.16 3.78979 3.78979 0 0 0 -3.78 3.78 3.88182 3.88182 0 0 0 .16 1.09 3.76942 3.76942 0 0 0 1.13 1.74h-11.81a.87064.87064 0 0 1 -.87-.87v-11.44a.8706.8706 0 0 1 .87-.87h2.97l1.05-1.87a.86681.86681 0 0 1 .76-.45h6.7a.87873.87873 0 0 1 .76.45l1.05 1.87h2.97a.8706.8706 0 0 1 .87.87z"/></svg>