<svg width="37" height="37" viewBox="0 0 37 37" fill="none" xmlns="http://www.w3.org/2000/svg">
<g clip-path="url(#clip0_699_3983)">
<path d="M34.6875 3.46483L25.4294 3.46487L25.4294 1.16046C25.4294 0.521633 24.912 0.00421142 24.2732 0.00421142C23.6343 0.00421142 23.1169 0.521633 23.1169 1.16046L23.1169 3.46429L13.8669 3.46429L13.8669 1.16046C13.8669 0.521633 13.3495 0.00421143 12.7107 0.00421143C12.0718 0.00421143 11.5544 0.521633 11.5544 1.16046L11.5544 3.46429L2.3125 3.46429C1.03542 3.46429 2.11862e-10 4.49971 2.72048e-10 5.77679L1.63433e-09 34.683C1.69451e-09 35.9601 1.03542 36.9955 2.3125 36.9955L34.6875 36.9955C35.9646 36.9955 37 35.9601 37 34.683L37 5.77679C37 4.50025 35.9646 3.46483 34.6875 3.46483ZM34.6875 34.683L2.3125 34.683L2.3125 5.77679L11.5544 5.77679L11.5544 6.94171C11.5544 7.5805 12.0718 8.09796 12.7107 8.09796C13.3495 8.09796 13.8669 7.5805 13.8669 6.94171L13.8669 5.77737L23.1169 5.77737L23.1169 6.94229C23.1169 7.58112 23.6343 8.09854 24.2732 8.09854C24.912 8.09854 25.4294 7.58112 25.4294 6.94229L25.4294 5.77737L34.6875 5.77737L34.6875 34.683ZM26.5938 18.4961L28.9063 18.4961C29.5445 18.4961 30.0625 17.9781 30.0625 17.3398L30.0625 15.0273C30.0625 14.3891 29.5445 13.8711 28.9063 13.8711L26.5938 13.8711C25.9555 13.8711 25.4375 14.3891 25.4375 15.0273L25.4375 17.3398C25.4375 17.9781 25.9555 18.4961 26.5938 18.4961ZM26.5938 27.7455L28.9063 27.7455C29.5445 27.7455 30.0625 27.2281 30.0625 26.5893L30.0625 24.2768C30.0625 23.6385 29.5445 23.1205 28.9063 23.1205L26.5938 23.1205C25.9555 23.1205 25.4375 23.6385 25.4375 24.2768L25.4375 26.5893C25.4375 27.2287 25.9555 27.7455 26.5938 27.7455ZM19.6563 23.1205L17.3438 23.1205C16.7055 23.1205 16.1875 23.6385 16.1875 24.2768L16.1875 26.5893C16.1875 27.2281 16.7055 27.7455 17.3438 27.7455L19.6563 27.7455C20.2945 27.7455 20.8125 27.2281 20.8125 26.5893L20.8125 24.2768C20.8125 23.6391 20.2945 23.1205 19.6563 23.1205ZM19.6563 13.8711L17.3438 13.8711C16.7055 13.8711 16.1875 14.3891 16.1875 15.0273L16.1875 17.3398C16.1875 17.9781 16.7055 18.4961 17.3438 18.4961L19.6563 18.4961C20.2945 18.4961 20.8125 17.9781 20.8125 17.3398L20.8125 15.0273C20.8125 14.3885 20.2945 13.8711 19.6563 13.8711ZM10.4063 13.8711L8.09375 13.8711C7.4555 13.8711 6.9375 14.3891 6.9375 15.0273L6.9375 17.3398C6.9375 17.9781 7.4555 18.4961 8.09375 18.4961L10.4063 18.4961C11.0445 18.4961 11.5625 17.9781 11.5625 17.3398L11.5625 15.0273C11.5625 14.3885 11.0445 13.8711 10.4063 13.8711ZM10.4063 23.1205L8.09375 23.1205C7.4555 23.1205 6.9375 23.6385 6.9375 24.2768L6.9375 26.5893C6.9375 27.2281 7.4555 27.7455 8.09375 27.7455L10.4063 27.7455C11.0445 27.7455 11.5625 27.2281 11.5625 26.5893L11.5625 24.2768C11.5625 23.6391 11.0445 23.1205 10.4063 23.1205Z" fill="#26282F"/>
</g>
<defs>
<clipPath id="clip0_699_3983">
<rect width="37" height="37" fill="white"/>
</clipPath>
</defs>
</svg>
