<svg width="84" height="84" viewBox="0 0 84 84" fill="none" xmlns="http://www.w3.org/2000/svg">
<path fill-rule="evenodd" clip-rule="evenodd" d="M41.9999 79.7998C62.876 79.7998 79.7998 62.876 79.7998 41.9999C79.7998 21.1239 62.876 4.19999 41.9999 4.19999C21.1239 4.19999 4.19999 21.1239 4.19999 41.9999C4.19999 62.876 21.1239 79.7998 41.9999 79.7998ZM41.9999 83.9998C65.1965 83.9998 83.9998 65.1965 83.9998 41.9999C83.9998 18.8034 65.1965 0 41.9999 0C18.8034 0 0 18.8034 0 41.9999C0 65.1965 18.8034 83.9998 41.9999 83.9998Z" fill="#50555C"/>
<path d="M16.8 66.4228C16.8 64.2535 18.4212 62.4203 20.58 62.1809C36.7814 60.3875 47.2919 60.5492 63.4577 62.2208C64.2649 62.3055 65.03 62.6235 65.6595 63.136C66.289 63.6484 66.7556 64.3331 67.0024 65.1064C67.2492 65.8797 67.2654 66.7081 67.0491 67.4904C66.8328 68.2728 66.3934 68.9752 65.7845 69.5119C46.706 86.1418 35.8028 85.9129 18.144 69.5287C17.283 68.7307 16.8 67.5946 16.8 66.4228Z" fill="#50555C"/>
<path fill-rule="evenodd" clip-rule="evenodd" d="M63.2414 64.3082C47.2037 62.6492 36.8444 62.4938 20.8089 64.2683C20.281 64.3298 19.7944 64.5838 19.4422 64.9817C19.09 65.3797 18.8969 65.8935 18.9 66.425C18.9 67.0256 19.1499 67.5947 19.572 67.9895C28.3247 76.108 34.9565 79.7767 41.4392 79.7998C47.945 79.8229 54.9338 76.1836 64.4048 67.9307C64.7056 67.6628 64.9223 67.3134 65.0283 66.9248C65.1343 66.5362 65.1251 66.1252 65.0018 65.7417C64.8786 65.3582 64.6466 65.0187 64.3341 64.7646C64.0216 64.5105 63.6419 64.3506 63.2414 64.3082ZM20.349 60.0935C36.7205 58.2812 47.3843 58.445 63.6761 60.1313C64.8905 60.258 66.0416 60.7361 66.9885 61.507C67.9354 62.278 68.637 63.3082 69.0074 64.4717C69.3777 65.6352 69.4009 66.8815 69.0739 68.0579C68.7469 69.2343 68.0839 70.2899 67.1663 71.0953C57.5588 79.4701 49.5578 84.0313 41.4266 83.9998C33.2723 83.9704 25.6242 79.3315 16.7181 71.068C16.0804 70.4741 15.5721 69.7551 15.2248 68.9558C14.8776 68.1566 14.6989 67.2943 14.7 66.4229C14.6969 64.8572 15.2716 63.3454 16.314 62.1771C17.3563 61.0088 18.793 60.2682 20.349 60.0935Z" fill="#50555C"/>
<path d="M58.7999 33.5999C58.7999 38.0555 57.0299 42.3287 53.8793 45.4793C50.7287 48.6299 46.4555 50.3999 41.9999 50.3999C37.5443 50.3999 33.2712 48.6299 30.1205 45.4793C26.9699 42.3287 25.2 38.0555 25.2 33.5999C25.2 29.1443 26.9699 24.8711 30.1205 21.7205C33.2712 18.5699 37.5443 16.7999 41.9999 16.7999C46.4555 16.7999 50.7287 18.5699 53.8793 21.7205C57.0299 24.8711 58.7999 29.1443 58.7999 33.5999Z" fill="#50555C"/>
<path fill-rule="evenodd" clip-rule="evenodd" d="M41.9999 46.1999C45.3416 46.1999 48.5465 44.8724 50.9094 42.5094C53.2724 40.1465 54.5999 36.9416 54.5999 33.5999C54.5999 30.2582 53.2724 27.0533 50.9094 24.6904C48.5465 22.3274 45.3416 20.9999 41.9999 20.9999C38.6582 20.9999 35.4533 22.3274 33.0904 24.6904C30.7274 27.0533 29.3999 30.2582 29.3999 33.5999C29.3999 36.9416 30.7274 40.1465 33.0904 42.5094C35.4533 44.8724 38.6582 46.1999 41.9999 46.1999ZM41.9999 50.3999C46.4555 50.3999 50.7287 48.6299 53.8793 45.4793C57.0299 42.3287 58.7999 38.0555 58.7999 33.5999C58.7999 29.1443 57.0299 24.8711 53.8793 21.7205C50.7287 18.5699 46.4555 16.7999 41.9999 16.7999C37.5443 16.7999 33.2712 18.5699 30.1205 21.7205C26.9699 24.8711 25.2 29.1443 25.2 33.5999C25.2 38.0555 26.9699 42.3287 30.1205 45.4793C33.2712 48.6299 37.5443 50.3999 41.9999 50.3999Z" fill="#50555C"/>
</svg>
