<svg width="44" height="44" viewBox="0 0 44 44" fill="none" xmlns="http://www.w3.org/2000/svg">
<path d="M21.9998 36.6666C18.5962 36.6666 15.332 35.3146 12.9253 32.9078C10.5186 30.5011 9.1665 27.2369 9.1665 23.8333C9.1665 20.4297 10.5186 17.1655 12.9253 14.7588C15.332 12.3521 18.5962 11 21.9998 11C25.4035 11 28.6677 12.3521 31.0744 14.7588C33.4811 17.1655 34.8332 20.4297 34.8332 23.8333C34.8332 27.2369 33.4811 30.5011 31.0744 32.9078C28.6677 35.3146 25.4035 36.6666 21.9998 36.6666ZM21.9998 7.33331C17.6238 7.33331 13.4269 9.07169 10.3326 12.166C7.23822 15.2604 5.49984 19.4572 5.49984 23.8333C5.49984 28.2094 7.23822 32.4062 10.3326 35.5006C13.4269 38.5949 17.6238 40.3333 21.9998 40.3333C26.3759 40.3333 30.5727 38.5949 33.6671 35.5006C36.7614 32.4062 38.4998 28.2094 38.4998 23.8333C38.4998 19.4572 36.7614 15.2604 33.6671 12.166C30.5727 9.07169 26.3759 7.33331 21.9998 7.33331ZM22.9165 14.6666L20.1665 14.6666L20.1665 25.6666L28.8748 30.8916L30.2498 28.6366L22.9165 24.2916L22.9165 14.6666ZM14.4465 6.21497L12.0998 3.40997L3.6665 10.4683L6.0315 13.2733L14.4465 6.21497ZM40.3332 10.4866L31.8998 3.40997L29.5348 6.21497L37.9682 13.2916L40.3332 10.4866Z" fill="#26282F"/>
</svg>
