<svg width="360" height="42" viewBox="0 0 360 42" fill="none" xmlns="http://www.w3.org/2000/svg">
<rect width="360" height="42" fill="#D9D9D9"/>
<path d="M28 21.998H22V27.998H20V21.998H14V19.998H20V13.998H22V19.998H28V21.998Z" fill="#777777"/>
<path d="M57.5 21C58.3284 21 59 20.3284 59 19.5C59 18.6716 58.3284 18 57.5 18C56.6716 18 56 18.6716 56 19.5C56 20.3284 56.6716 21 57.5 21Z" fill="#777777"/>
<path d="M50.5 21C51.3284 21 52 20.3284 52 19.5C52 18.6716 51.3284 18 50.5 18C49.6716 18 49 18.6716 49 19.5C49 20.3284 49.6716 21 50.5 21Z" fill="#777777"/>
<path d="M54 28C56.28 28 58.22 26.34 59 24H49C49.78 26.34 51.72 28 54 28Z" fill="#777777"/>
<path d="M53.99 12C48.47 12 44 16.48 44 22C44 27.52 48.47 32 53.99 32C59.52 32 64 27.52 64 22C64 16.48 59.52 12 53.99 12ZM54 30C49.58 30 46 26.42 46 22C46 17.58 49.58 14 54 14C58.42 14 62 17.58 62 22C62 26.42 58.42 30 54 30Z" fill="#777777"/>
<path d="M337 22C337 17.0312 332.969 13 328 13C323.031 13 319 17.0312 319 22C319 26.9688 323.031 31 328 31C332.969 31 337 26.9688 337 22Z" stroke="#777777" stroke-width="1.5" stroke-miterlimit="10"/>
<path d="M326.5 27.25H329.5M331.75 20.514V21.6353C331.75 23.4831 329.848 24.9859 328 24.9859C326.152 24.9859 324.25 23.4831 324.25 21.6353V20.514M328 25V27.25" stroke="#777777" stroke-width="1.5" stroke-linecap="round" stroke-linejoin="round"/>
<path d="M330.25 18.25C330.25 17.0074 329.243 16 328 16C326.757 16 325.75 17.0074 325.75 18.25V21.25C325.75 22.4926 326.757 23.5 328 23.5C329.243 23.5 330.25 22.4926 330.25 21.25V18.25Z" fill="#777777"/>
</svg>
