<svg width="40" height="47" viewBox="0 0 40 47" fill="none" xmlns="http://www.w3.org/2000/svg">
<g filter="url(#filter0_d_692_3546)">
<path d="M10.4198 7.41928C10.6997 7.13976 11.056 7 11.4886 7C11.9211 7 12.2774 7.13976 12.5573 7.41928L19.5802 14.4327C19.7328 14.5852 19.8412 14.7504 19.9053 14.9283C19.9684 15.1061 20 15.2967 20 15.5C20 15.7033 19.9618 15.9005 19.8855 16.0916C19.8092 16.2816 19.7074 16.4402 19.5802 16.5673L12.5573 23.5807C12.2774 23.8602 11.9211 24 11.4885 24C11.056 24 10.6997 23.8602 10.4198 23.5807C10.1399 23.3012 10 22.9454 10 22.5135C10 22.0815 10.1399 21.7257 10.4198 21.4462L13.3969 18.4731L16.374 15.5L10.4198 9.55381C10.1399 9.27429 10 8.91853 10 8.48655C10 8.05456 10.1399 7.6988 10.4198 7.41928Z" fill="white"/>
<path d="M16.7274 15.8538L17.0816 15.5L16.7274 15.1462L10.7732 9.20002C10.5963 9.02338 10.5 8.79927 10.5 8.48655C10.5 8.17383 10.5963 7.94971 10.7732 7.77307C10.9501 7.59639 11.1748 7.5 11.4886 7.5C11.8023 7.5 12.027 7.59639 12.2039 7.77307L19.2268 14.7865C19.3343 14.8939 19.3986 14.9976 19.4346 15.0967C19.4769 15.2165 19.5 15.3498 19.5 15.5C19.5 15.6388 19.4743 15.773 19.4213 15.9057C19.3667 16.0415 19.2999 16.1405 19.2268 16.2135L12.2039 23.2269C12.027 23.4036 11.8023 23.5 11.4885 23.5C11.1748 23.5 10.9501 23.4036 10.7732 23.2269C10.5963 23.0503 10.5 22.8262 10.5 22.5135C10.5 22.2007 10.5963 21.9766 10.7732 21.8L13.7503 18.8269L16.7274 15.8538Z" stroke="white"/>
</g>
<defs>
<filter id="filter0_d_692_3546" x="0" y="0" width="40" height="47" filterUnits="userSpaceOnUse" color-interpolation-filters="sRGB">
<feFlood flood-opacity="0" result="BackgroundImageFix"/>
<feColorMatrix in="SourceAlpha" type="matrix" values="0 0 0 0 0 0 0 0 0 0 0 0 0 0 0 0 0 0 127 0" result="hardAlpha"/>
<feOffset dx="5" dy="8"/>
<feGaussianBlur stdDeviation="7.5"/>
<feComposite in2="hardAlpha" operator="out"/>
<feColorMatrix type="matrix" values="0 0 0 0 0 0 0 0 0 0 0 0 0 0 0 0 0 0 0.25 0"/>
<feBlend mode="normal" in2="BackgroundImageFix" result="effect1_dropShadow_692_3546"/>
<feBlend mode="normal" in="SourceGraphic" in2="effect1_dropShadow_692_3546" result="shape"/>
</filter>
</defs>
</svg>
