<svg width="351" height="387" viewBox="0 0 351 387" fill="none" xmlns="http://www.w3.org/2000/svg">
<g clip-path="url(#clip0_165_1682)">
<path d="M12.5458 181.665C41.4027 112.603 110.12 138.658 149.252 74.0065C216.775 -37.5762 364.003 2.27591 342.914 125.803C327.884 213.803 369.018 320.292 304.042 346.834C184.794 395.554 108.902 361.463 63.6071 346.834C-18.5815 320.3 -3.29866 219.595 12.5458 181.665Z" fill="#2252B2"/>
<path d="M19.5069 208.827C35.1219 138.556 104.646 151.788 130.75 84.0441C175.792 -32.9772 332.14 -24.7604 333.089 95.7925C333.785 181.665 356.543 297.148 299.486 333.147C194.784 399.211 141.279 363.079 95.8734 356.777C13.5108 345.359 10.9241 247.4 19.5069 208.827Z" stroke="white" stroke-width="1.7" stroke-miterlimit="10"/>
<path d="M29.7112 164.949C68.6143 96.7892 121.4 127.114 169.194 65.1462C251.684 -41.7905 383.177 22.1706 342.281 148.649C313.147 238.736 333.579 356.675 268.034 374.765C147.694 407.954 96.791 361.219 56.7409 339.057C-15.9473 298.828 8.35329 202.368 29.7112 164.949Z" stroke="white" stroke-width="1.77" stroke-miterlimit="10"/>
<path d="M23.7943 166.746C69.3421 102.762 128.836 122.334 182.61 65.3973C275.407 -32.8752 399.836 43.7525 346.457 165.561C324.506 215.663 347.66 320.3 251.778 362.161C198.684 385.344 72.8384 344.166 56.9149 333.178C-11.3751 285.949 -1.21825 201.874 23.7943 166.746Z" stroke="white" stroke-width="1.77" stroke-miterlimit="10"/>
</g>
<defs>
<clipPath id="clip0_165_1682">
<rect width="351" height="387" fill="white"/>
</clipPath>
</defs>
</svg>
