<svg width="316" height="24" viewBox="0 0 316 24" fill="none" xmlns="http://www.w3.org/2000/svg">
<path d="M298.611 8.69638L295.714 8.69301L295.707 14.4861L298.604 14.4894L303.427 18.3571L303.443 4.83994L298.611 8.69638Z" stroke="#787878" stroke-width="2" stroke-linejoin="round"/>
<path d="M310.683 5.33112C311.506 6.15621 312.159 7.13537 312.604 8.2127C313.049 9.29003 313.277 10.4444 313.276 11.61C313.274 12.7755 313.043 13.9294 312.596 15.0057C312.149 16.082 311.494 17.0596 310.669 17.8828M307.301 7.74097C308.324 8.76646 308.898 10.1563 308.896 11.6049C308.895 13.0534 308.318 14.442 307.292 15.4651" stroke="#787878" stroke-width="2" stroke-linecap="round"/>
<path d="M5.80969 8.69638L2.91316 8.69301L2.90642 14.4861L5.80296 14.4894L10.626 18.3571L10.6417 4.83994L5.80969 8.69638Z" stroke="#787878" stroke-width="2" stroke-linejoin="round"/>
<line x1="23.5644" y1="11.5315" x2="287.286" y2="11.5316" stroke="#797979" stroke-width="3" stroke-linecap="round"/>
<line x1="22.5617" y1="11.5315" x2="144.896" y2="11.5315" stroke="#32D74B" stroke-width="5" stroke-linecap="round"/>
<circle cx="143.894" cy="10.5288" r="8.52331" fill="white"/>
</svg>
