<svg width="16" height="16" viewBox="0 0 16 16" fill="none" xmlns="http://www.w3.org/2000/svg">
<g clip-path="url(#clip0_432_2307)">
<path d="M15 1.49847L10.9965 1.49848V0.501984C10.9965 0.225734 10.7727 0.00198364 10.4965 0.00198364C10.2203 0.00198364 9.9965 0.225734 9.9965 0.501984V1.49823H5.9965V0.501984C5.9965 0.225734 5.77275 0.00198364 5.4965 0.00198364C5.22025 0.00198364 4.9965 0.225734 4.9965 0.501984V1.49823H1C0.44775 1.49823 0 1.94598 0 2.49823V14.9982C0 15.5505 0.44775 15.9982 1 15.9982H15C15.5522 15.9982 16 15.5505 16 14.9982V2.49823C16 1.94622 15.5522 1.49847 15 1.49847ZM15 14.9982H1V2.49823H4.9965V3.00198C4.9965 3.27822 5.22025 3.50198 5.4965 3.50198C5.77275 3.50198 5.9965 3.27822 5.9965 3.00198V2.49848H9.9965V3.00223C9.9965 3.27848 10.2203 3.50223 10.4965 3.50223C10.7727 3.50223 10.9965 3.27848 10.9965 3.00223V2.49848H15V14.9982ZM11.5 7.99847H12.5C12.776 7.99847 13 7.77447 13 7.49847V6.49847C13 6.22247 12.776 5.99847 12.5 5.99847H11.5C11.224 5.99847 11 6.22247 11 6.49847V7.49847C11 7.77447 11.224 7.99847 11.5 7.99847ZM11.5 11.9982H12.5C12.776 11.9982 13 11.7745 13 11.4982V10.4982C13 10.2222 12.776 9.99822 12.5 9.99822H11.5C11.224 9.99822 11 10.2222 11 10.4982V11.4982C11 11.7747 11.224 11.9982 11.5 11.9982ZM8.5 9.99822H7.5C7.224 9.99822 7 10.2222 7 10.4982V11.4982C7 11.7745 7.224 11.9982 7.5 11.9982H8.5C8.776 11.9982 9 11.7745 9 11.4982V10.4982C9 10.2225 8.776 9.99822 8.5 9.99822ZM8.5 5.99847H7.5C7.224 5.99847 7 6.22247 7 6.49847V7.49847C7 7.77447 7.224 7.99847 7.5 7.99847H8.5C8.776 7.99847 9 7.77447 9 7.49847V6.49847C9 6.22222 8.776 5.99847 8.5 5.99847ZM4.5 5.99847H3.5C3.224 5.99847 3 6.22247 3 6.49847V7.49847C3 7.77447 3.224 7.99847 3.5 7.99847H4.5C4.776 7.99847 5 7.77447 5 7.49847V6.49847C5 6.22222 4.776 5.99847 4.5 5.99847ZM4.5 9.99822H3.5C3.224 9.99822 3 10.2222 3 10.4982V11.4982C3 11.7745 3.224 11.9982 3.5 11.9982H4.5C4.776 11.9982 5 11.7745 5 11.4982V10.4982C5 10.2225 4.776 9.99822 4.5 9.99822Z" fill="white"/>
</g>
<defs>
<clipPath id="clip0_432_2307">
<rect width="16" height="16" fill="white"/>
</clipPath>
</defs>
</svg>
