<svg width="40" height="47" viewBox="0 0 40 47" fill="none" xmlns="http://www.w3.org/2000/svg">
<g filter="url(#filter0_d_436_4772)">
<path d="M19.5802 7.41928C19.3003 7.13976 18.944 7 18.5114 7C18.0789 7 17.7226 7.13976 17.4427 7.41928L10.4198 14.4327C10.2672 14.5852 10.1588 14.7504 10.0947 14.9283C10.0316 15.1061 10 15.2967 10 15.5C10 15.7033 10.0382 15.9005 10.1145 16.0916C10.1908 16.2816 10.2926 16.4402 10.4198 16.5673L17.4427 23.5807C17.7226 23.8602 18.0789 24 18.5115 24C18.944 24 19.3003 23.8602 19.5802 23.5807C19.8601 23.3012 20 22.9454 20 22.5135C20 22.0815 19.8601 21.7257 19.5802 21.4462L16.6031 18.4731L13.626 15.5L19.5802 9.55381C19.8601 9.27429 20 8.91853 20 8.48655C20 8.05456 19.8601 7.6988 19.5802 7.41928Z" fill="white"/>
<path d="M13.2726 15.8538L12.9184 15.5L13.2726 15.1462L19.2268 9.20002C19.4037 9.02338 19.5 8.79927 19.5 8.48655C19.5 8.17383 19.4037 7.94971 19.2268 7.77307C19.0499 7.59639 18.8252 7.5 18.5114 7.5C18.1977 7.5 17.973 7.59639 17.7961 7.77307L10.7732 14.7865C10.6657 14.8939 10.6014 14.9976 10.5654 15.0967C10.5231 15.2165 10.5 15.3498 10.5 15.5C10.5 15.6388 10.5257 15.773 10.5787 15.9057C10.6333 16.0415 10.7001 16.1405 10.7732 16.2135L17.7961 23.2269C17.973 23.4036 18.1977 23.5 18.5115 23.5C18.8252 23.5 19.0499 23.4036 19.2268 23.2269C19.4037 23.0503 19.5 22.8262 19.5 22.5135C19.5 22.2007 19.4037 21.9766 19.2268 21.8L16.2497 18.8269L13.2726 15.8538Z" stroke="white"/>
</g>
<defs>
<filter id="filter0_d_436_4772" x="0" y="0" width="40" height="47" filterUnits="userSpaceOnUse" color-interpolation-filters="sRGB">
<feFlood flood-opacity="0" result="BackgroundImageFix"/>
<feColorMatrix in="SourceAlpha" type="matrix" values="0 0 0 0 0 0 0 0 0 0 0 0 0 0 0 0 0 0 127 0" result="hardAlpha"/>
<feOffset dx="5" dy="8"/>
<feGaussianBlur stdDeviation="7.5"/>
<feComposite in2="hardAlpha" operator="out"/>
<feColorMatrix type="matrix" values="0 0 0 0 0 0 0 0 0 0 0 0 0 0 0 0 0 0 0.25 0"/>
<feBlend mode="normal" in2="BackgroundImageFix" result="effect1_dropShadow_436_4772"/>
<feBlend mode="normal" in="SourceGraphic" in2="effect1_dropShadow_436_4772" result="shape"/>
</filter>
</defs>
</svg>
