<svg width="20" height="20" viewBox="0 0 20 20" fill="none" xmlns="http://www.w3.org/2000/svg">
<path d="M10 13.3333C9.7639 13.3333 9.56584 13.2533 9.40584 13.0933C9.24584 12.9333 9.16612 12.7356 9.16668 12.5V4.02083L8.41668 4.77083C8.2639 4.92361 8.07279 5 7.84334 5C7.6139 5 7.41612 4.91667 7.25001 4.75C7.09723 4.58333 7.02085 4.38528 7.02085 4.15583C7.02085 3.92639 7.09723 3.73556 7.25001 3.58333L9.41668 1.41667C9.48612 1.34722 9.57307 1.29167 9.67751 1.25C9.78196 1.20833 9.88946 1.1875 10 1.1875C10.1111 1.1875 10.2189 1.20833 10.3233 1.25C10.4278 1.29167 10.5145 1.34722 10.5833 1.41667L12.75 3.58333C12.9167 3.75 13 3.95139 13 4.1875C13 4.42361 12.9167 4.61806 12.75 4.77083C12.5833 4.92361 12.3853 5 12.1558 5C11.9264 5 11.7356 4.92361 11.5833 4.77083L10.8333 4.02083V12.5C10.8333 12.7361 10.7533 12.9342 10.5933 13.0942C10.4333 13.2542 10.2356 13.3339 10 13.3333ZM5.00001 19.1667C4.54168 19.1667 4.14918 19.0033 3.82251 18.6767C3.49584 18.35 3.33279 17.9578 3.33334 17.5V8.33333C3.33334 7.875 3.49668 7.4825 3.82334 7.15583C4.15001 6.82917 4.54223 6.66611 5.00001 6.66667H6.66668C6.90279 6.66667 7.10085 6.74667 7.26085 6.90667C7.42085 7.06667 7.50057 7.26444 7.50001 7.5C7.50001 7.73611 7.42001 7.93417 7.26001 8.09417C7.10001 8.25417 6.90223 8.33389 6.66668 8.33333H5.00001V17.5H15V8.33333H13.3333C13.0972 8.33333 12.8992 8.25333 12.7392 8.09333C12.5792 7.93333 12.4995 7.73556 12.5 7.5C12.5 7.26389 12.58 7.06583 12.74 6.90583C12.9 6.74583 13.0978 6.66611 13.3333 6.66667H15C15.4583 6.66667 15.8508 6.83 16.1775 7.15667C16.5042 7.48333 16.6672 7.87556 16.6667 8.33333V17.5C16.6667 17.9583 16.5033 18.3508 16.1767 18.6775C15.85 19.0042 15.4578 19.1672 15 19.1667H5.00001Z" fill="white"/>
</svg>
