<svg width="20" height="20" viewBox="0 0 20 20" fill="none" xmlns="http://www.w3.org/2000/svg">
<path d="M5.83335 10.4166C5.94386 10.4166 6.04984 10.3727 6.12798 10.2945C6.20612 10.2164 6.25002 10.1104 6.25002 9.99992C6.25002 9.88941 6.20612 9.78343 6.12798 9.70529C6.04984 9.62715 5.94386 9.58325 5.83335 9.58325C5.72285 9.58325 5.61687 9.62715 5.53873 9.70529C5.46059 9.78343 5.41669 9.88941 5.41669 9.99992C5.41669 10.1104 5.46059 10.2164 5.53873 10.2945C5.61687 10.3727 5.72285 10.4166 5.83335 10.4166ZM10 10.4166C10.1105 10.4166 10.2165 10.3727 10.2946 10.2945C10.3728 10.2164 10.4167 10.1104 10.4167 9.99992C10.4167 9.88941 10.3728 9.78343 10.2946 9.70529C10.2165 9.62715 10.1105 9.58325 10 9.58325C9.88951 9.58325 9.78353 9.62715 9.70539 9.70529C9.62725 9.78343 9.58335 9.88941 9.58335 9.99992C9.58335 10.1104 9.62725 10.2164 9.70539 10.2945C9.78353 10.3727 9.88951 10.4166 10 10.4166ZM14.1667 10.4166C14.2772 10.4166 14.3832 10.3727 14.4613 10.2945C14.5395 10.2164 14.5834 10.1104 14.5834 9.99992C14.5834 9.88941 14.5395 9.78343 14.4613 9.70529C14.3832 9.62715 14.2772 9.58325 14.1667 9.58325C14.0562 9.58325 13.9502 9.62715 13.8721 9.70529C13.7939 9.78343 13.75 9.88941 13.75 9.99992C13.75 10.1104 13.7939 10.2164 13.8721 10.2945C13.9502 10.3727 14.0562 10.4166 14.1667 10.4166Z" fill="white" stroke="white" stroke-width="1.25" stroke-linecap="round" stroke-linejoin="round"/>
<path d="M10 18.3333C14.6025 18.3333 18.3334 14.6025 18.3334 9.99996C18.3334 5.39746 14.6025 1.66663 10 1.66663C5.39752 1.66663 1.66669 5.39746 1.66669 9.99996C1.66669 14.6025 5.39752 18.3333 10 18.3333Z" stroke="white" stroke-width="1.25" stroke-linecap="round" stroke-linejoin="round"/>
</svg>
