<svg width="37" height="42" viewBox="0 0 37 42" fill="none" xmlns="http://www.w3.org/2000/svg">
<g filter="url(#filter0_d_699_4592)">
<path d="M10.4014 7.36461C10.587 7.17902 10.8232 7.08622 11.11 7.08622C11.3968 7.08622 11.633 7.17902 11.8186 7.36461L16.4753 12.0213C16.5765 12.1225 16.6484 12.2322 16.6909 12.3503C16.7327 12.4684 16.7537 12.5949 16.7537 12.7299C16.7537 12.8649 16.7283 12.9958 16.6777 13.1227C16.6271 13.2489 16.5596 13.3542 16.4753 13.4385L11.8186 18.0952C11.633 18.2808 11.3968 18.3736 11.11 18.3736C10.8232 18.3736 10.587 18.2808 10.4014 18.0952C10.2158 17.9096 10.123 17.6734 10.123 17.3865C10.123 17.0997 10.2158 16.8635 10.4014 16.6779L14.3494 12.7299L10.4014 8.78185C10.2158 8.59626 10.123 8.36005 10.123 8.07323C10.123 7.78641 10.2158 7.5502 10.4014 7.36461Z" fill="#777777"/>
<path d="M14.7073 13.0878L15.0652 12.7299L14.7073 12.372L10.7593 8.42394C10.6779 8.34255 10.6291 8.23952 10.6291 8.07323C10.6291 7.90694 10.6779 7.80391 10.7593 7.72252C10.8407 7.64112 10.9437 7.59238 11.11 7.59238C11.2763 7.59238 11.3793 7.64112 11.4607 7.72252L16.1174 12.3792L16.4753 12.0213L16.1174 12.3792C16.1728 12.4346 16.2002 12.4821 16.2143 12.5206C16.2352 12.5801 16.2475 12.6487 16.2475 12.7299C16.2475 12.7997 16.2348 12.8669 16.2078 12.9347C16.1791 13.006 16.147 13.051 16.1174 13.0806L11.4607 17.7373C11.3793 17.8187 11.2763 17.8674 11.11 17.8674C10.9437 17.8674 10.8407 17.8187 10.7593 17.7373C10.6779 17.6559 10.6291 17.5528 10.6291 17.3865C10.6291 17.2203 10.6779 17.1172 10.7593 17.0358L14.7073 13.0878Z" stroke="#777777"/>
</g>
<defs>
<filter id="filter0_d_699_4592" x="0" y="0" width="37" height="41.6569" filterUnits="userSpaceOnUse" color-interpolation-filters="sRGB">
<feFlood flood-opacity="0" result="BackgroundImageFix"/>
<feColorMatrix in="SourceAlpha" type="matrix" values="0 0 0 0 0 0 0 0 0 0 0 0 0 0 0 0 0 0 127 0" result="hardAlpha"/>
<feOffset dx="5" dy="8"/>
<feGaussianBlur stdDeviation="7.5"/>
<feComposite in2="hardAlpha" operator="out"/>
<feColorMatrix type="matrix" values="0 0 0 0 0 0 0 0 0 0 0 0 0 0 0 0 0 0 0.25 0"/>
<feBlend mode="normal" in2="BackgroundImageFix" result="effect1_dropShadow_699_4592"/>
<feBlend mode="normal" in="SourceGraphic" in2="effect1_dropShadow_699_4592" result="shape"/>
</filter>
</defs>
</svg>
