<svg width="75" height="75" viewBox="0 0 75 75" fill="none" xmlns="http://www.w3.org/2000/svg">
<path d="M38 34C35.1125 34 32.6406 32.9719 30.5844 30.9156C28.5281 28.8594 27.5 26.3875 27.5 23.5C27.5 20.6125 28.5281 18.1406 30.5844 16.0844C32.6406 14.0281 35.1125 13 38 13C40.8875 13 43.3594 14.0281 45.4156 16.0844C47.4719 18.1406 48.5 20.6125 48.5 23.5C48.5 26.3875 47.4719 28.8594 45.4156 30.9156C43.3594 32.9719 40.8875 34 38 34ZM17 55L17 47.65C17 46.1625 17.3833 44.7949 18.1498 43.5471C18.9145 42.3011 19.9312 41.35 21.2 40.6938C23.9125 39.3375 26.6687 38.3199 29.4687 37.6409C32.2688 36.9636 35.1125 36.625 38 36.625C40.8875 36.625 43.7313 36.9636 46.5312 37.6409C49.3312 38.3199 52.0875 39.3375 54.8 40.6938C56.0687 41.35 57.0855 42.3011 57.8503 43.5471C58.6167 44.7949 59 46.1625 59 47.65L59 55L17 55Z" fill="#D9D9D9"/>
<circle cx="37.5" cy="37.5" r="37" stroke="#D9D9D9"/>
</svg>
