<svg width="15" height="15" viewBox="0 0 15 15" fill="none" xmlns="http://www.w3.org/2000/svg">
<path d="M1.46341 15C1.06098 15 0.716341 14.8568 0.429512 14.5703C0.143171 14.2843 0 13.9403 0 13.5384V3.30694C0 2.90499 0.143171 2.56078 0.429512 2.2743C0.716341 1.98831 1.06098 1.84531 1.46341 1.84531H7.9939L6.53049 3.30694H1.46341V13.5384H11.7073V8.4592L13.1707 6.99756V13.5384C13.1707 13.9403 13.0276 14.2843 12.7412 14.5703C12.4544 14.8568 12.1098 15 11.7073 15H1.46341ZM9.64024 2.26553L10.6829 3.28867L5.85366 8.11206V9.15347H6.87805L11.7256 4.31181L12.7683 5.33496L7.92073 10.1766C7.78659 10.3106 7.63122 10.4173 7.45463 10.4967C7.27756 10.5756 7.09146 10.6151 6.89634 10.6151H5.12195C4.91463 10.6151 4.74098 10.5452 4.60098 10.4054C4.46049 10.265 4.39024 10.0914 4.39024 9.88429V8.11206C4.39024 7.91717 4.42683 7.7313 4.5 7.55444C4.57317 7.37807 4.67683 7.2229 4.81098 7.08892L9.64024 2.26553ZM12.7683 5.33496L9.64024 2.26553L11.4695 0.43849C11.7622 0.146163 12.1129 0 12.5217 0C12.93 0 13.2744 0.146163 13.5549 0.43849L14.5793 1.4799C14.8598 1.76005 15 2.1011 15 2.50304C15 2.90499 14.8598 3.24604 14.5793 3.52619L12.7683 5.33496Z" fill="white"/>
</svg>
