<svg width="175" height="187" viewBox="0 0 175 187" fill="none" xmlns="http://www.w3.org/2000/svg">
<g style="mix-blend-mode:multiply">
<path d="M161.648 135.21C168.592 139.214 168.628 145.716 161.728 149.721L102.77 183.994C95.8765 188.006 84.6672 187.998 77.7232 183.994L18.3863 149.721C11.4423 145.716 11.406 139.214 18.299 135.21L77.2573 100.937C84.1504 96.9248 95.367 96.9248 102.304 100.937L161.648 135.21Z" fill="#DAE3F8"/>
</g>
<path d="M168.89 127.739L104.043 165.441C96.4662 169.846 84.1286 169.846 76.4931 165.441L11.2168 127.746C7.38083 125.525 5.45922 122.613 5.4665 119.737V123.793C5.4665 126.705 7.37355 129.618 11.2168 131.802L76.4495 169.49C84.0849 173.902 96.4152 173.902 104 169.49L168.89 131.802C172.661 129.618 174.546 126.741 174.553 123.873V119.817C174.553 122.678 172.668 125.547 168.89 127.739Z" fill="#829BE5"/>
<path d="M168.81 111.771C176.446 116.176 176.489 123.327 168.905 127.739L104.044 165.441C96.4663 169.846 84.1287 169.846 76.4932 165.441L11.2169 127.746C3.58867 123.334 3.54499 116.191 11.1295 111.778L75.9837 74.0763C83.5682 69.7075 95.9058 69.7075 103.534 74.0763L168.81 111.771Z" fill="white" stroke="#829BE5" stroke-width="0.75" stroke-miterlimit="10"/>
<path d="M35.5279 61.0137L33.9047 60.0672L33.8028 24.644L35.426 25.5905L35.5279 61.0137Z" fill="#80C1F7" stroke="#829BE5" stroke-width="0.75" stroke-linecap="round" stroke-linejoin="round"/>
<path d="M35.426 25.5905L33.8028 24.644L57.5463 10.9334L59.1695 11.8727L35.426 25.5905Z" fill="#80C1F7" stroke="#829BE5" stroke-width="0.75" stroke-linecap="round" stroke-linejoin="round"/>
<path d="M35.7025 25.7434L58.9001 12.3532L58.9947 47.143L35.7972 60.5404L35.7025 25.7434Z" fill="white"/>
<path d="M58.6235 12.8192L58.7181 46.9828L36.0737 60.089L35.9719 25.9255L58.6235 12.8192ZM59.1694 11.8727L35.4259 25.5832L35.5278 61.0137L59.2713 47.2959L59.1694 11.8727Z" fill="#829BE5"/>
<path d="M37.7334 26.1949L56.8766 15.1347L56.964 43.8591L37.8207 54.9121L37.7334 26.1949Z" fill="white" stroke="#829BE5" stroke-width="0.75" stroke-miterlimit="10"/>
<path d="M43.8621 23.4134V20.8577L42.1298 19.8748V17.8214L43.7311 18.6297V19.0083L45.267 19.9476V24.2508L43.8621 23.4134Z" fill="#829BE5"/>
<path d="M42.6976 17.7996L48.1057 14.5376L49.1684 15.1274L43.7166 18.3166L42.6976 17.7996Z" fill="white"/>
<path d="M48.113 14.8507L48.6153 15.1347L43.6948 18.0035L43.2435 17.7778L48.0984 14.8653M48.0984 14.2318L42.1226 17.8724L43.7239 18.6806L49.7071 15.1711L48.0984 14.2682V14.2318Z" fill="#829BE5"/>
<path d="M44.0004 18.8481V18.7826L49.4595 15.5861C49.4809 15.6464 49.5219 15.6977 49.576 15.7317L50.9007 16.5108L45.2742 19.6272L44.0004 18.8481Z" fill="white"/>
<path d="M49.4013 15.9429H49.4377L50.3475 16.4817L45.2524 19.2923L44.459 18.8044L49.3794 15.8919M49.6924 15.0691L43.7093 18.5787V18.9573L45.2378 19.8966L51.4321 16.4671L49.6924 15.4405V15.0691Z" fill="#829BE5"/>
<path d="M45.5364 20.1078L51.1774 16.9841V20.3772L45.5364 23.7629V20.1078Z" fill="white"/>
<path d="M50.908 17.4428V20.2242L45.8128 23.2824V20.2679L50.908 17.4428ZM51.4539 16.5181L45.2596 19.9476V24.2508L51.4539 20.5301V16.5181Z" fill="#829BE5"/>
<path d="M43.7312 19.0083L49.7144 15.4987V15.1201L43.7312 18.6297V19.0083Z" fill="#829BE5"/>
<path d="M50.3985 24.5056L50.4058 26.0128L44.2406 29.5734L44.2334 28.0661L50.3985 24.5056Z" fill="#829BE5"/>
<path d="M49.9109 28.2118V29.02L43.2289 32.879V32.0708L49.9109 28.2118Z" fill="#829BE5"/>
<path d="M42.2972 32.6024L42.3045 33.4106L40.179 34.6411V33.8329L42.2972 32.6024Z" fill="#829BE5"/>
<path d="M54.482 25.5687V26.3769L50.9445 28.4229V27.6147L54.482 25.5687Z" fill="#829BE5"/>
<path d="M49.9182 32.7261L49.9255 33.5343L43.2435 37.3934V36.5852L49.9182 32.7261Z" fill="#829BE5"/>
<path d="M49.9254 34.9906L49.9327 35.7988L43.2508 39.6506V38.8424L49.9254 34.9906Z" fill="#829BE5"/>
<path d="M49.9181 30.4689V31.2772L43.2362 35.1362V34.328L49.9181 30.4689Z" fill="#829BE5"/>
<path d="M42.3045 34.8668L42.3118 35.675L40.1864 36.8983V36.0901L42.3045 34.8668Z" fill="#829BE5"/>
<path d="M54.5037 34.7794L54.511 35.5877L50.9735 37.6264V36.8182L54.5037 34.7794Z" fill="#829BE5"/>
<path d="M54.4965 32.3475L54.5038 33.1557L50.9663 35.1945V34.3863L54.4965 32.3475Z" fill="#829BE5"/>
<path d="M54.4893 30.0903L54.4965 30.8985L50.959 32.9373V32.1291L54.4893 30.0903Z" fill="#829BE5"/>
<path d="M54.4892 27.8331V28.6414L50.9517 30.6801V29.8719L54.4892 27.8331Z" fill="#829BE5"/>
<path d="M42.3118 37.124V37.9322L40.1936 39.1555V38.3472L42.3118 37.124Z" fill="#829BE5"/>
<path d="M42.319 39.3812V40.1894L40.2009 41.4126V40.6044L42.319 39.3812Z" fill="#829BE5"/>
<path d="M49.9473 41.9369V42.7451L43.2726 46.6042L43.2654 45.7959L49.9473 41.9369Z" fill="#829BE5"/>
<path d="M49.9399 39.6797V40.4806L43.2653 44.3397L43.258 43.5315L49.9399 39.6797Z" fill="#829BE5"/>
<path d="M49.9327 37.4152L49.94 38.2235L43.258 42.0825L43.2508 41.2743L49.9327 37.4152Z" fill="#829BE5"/>
<path d="M42.3263 41.8131V42.6213L40.2082 43.8446L40.2009 43.0364L42.3263 41.8131Z" fill="#829BE5"/>
<path d="M42.3336 44.0703V44.8785L40.2155 46.1018L40.2082 45.2935L42.3336 44.0703Z" fill="#829BE5"/>
<path d="M54.511 37.0366V37.8448L50.9808 39.8836L50.9735 39.0754L54.511 37.0366Z" fill="#829BE5"/>
<path d="M42.3409 46.3275V47.1357L40.2228 48.3662L40.2155 47.558L42.3409 46.3275Z" fill="#829BE5"/>
<path d="M54.5184 39.2938V40.102L50.9882 42.148L50.9809 41.3398L54.5184 39.2938Z" fill="#829BE5"/>
<path d="M64.5339 1.08188L65.1672 1.45322C64.0026 0.776069 62.3867 0.870732 60.6034 1.90467L59.9628 1.53332C61.7462 0.499382 63.3475 0.40473 64.5339 1.08188Z" fill="#829BE5"/>
<path d="M56.0687 17.1006L55.4354 16.7293C54.2854 16.0594 53.5648 14.6323 53.5648 12.6154C53.5648 8.53787 56.4108 3.57935 59.9556 1.53332L60.5961 1.90467C57.0513 3.9507 54.1908 8.90921 54.198 12.9794C54.2126 15.0036 54.9259 16.4307 56.0687 17.1006Z" fill="#829BE5"/>
<path d="M60.6034 1.90466C64.1482 -0.148646 67.0233 1.49691 67.0379 5.54528C67.0525 9.59365 64.1846 14.574 60.6398 16.62C57.095 18.6661 54.2199 17.0278 54.2054 12.9794C54.1908 8.93105 57.0587 3.95069 60.6034 1.90466Z" fill="#9BF7B8" stroke="#829BE5" stroke-width="0.75" stroke-linecap="round" stroke-linejoin="round"/>
<path d="M63.2093 4.64241L63.5951 5.26859C62.7848 6.27268 62.0935 7.36731 61.5352 8.53058C61.3459 8.92377 61.164 9.30968 61.0038 9.68102C60.57 10.6666 60.191 11.6754 59.8683 12.7027L59.6718 13.3508L57.6483 13.0013L58.1068 11.9236L59.3006 12.1348C59.6229 11.1674 59.9947 10.2172 60.4142 9.28784C60.5525 8.97475 60.7054 8.64709 60.8728 8.31943C61.5021 7.00484 62.2865 5.77037 63.2093 4.64241Z" fill="white" stroke="white" stroke-miterlimit="10"/>
<path d="M113.2 29.2384L114.656 28.4084C114.977 28.2593 115.332 28.1989 115.684 28.2335C116.036 28.268 116.372 28.3963 116.658 28.605L115.202 29.435C114.915 29.2278 114.579 29.1004 114.228 29.0658C113.876 29.0313 113.521 29.0908 113.2 29.2384Z" fill="#829BE5"/>
<path d="M162.747 86.0466L161.291 86.8767C161.575 86.6746 161.8 86.4013 161.945 86.0843C162.089 85.7672 162.148 85.4177 162.114 85.0709L163.569 84.2409C163.606 84.5878 163.548 84.9382 163.404 85.2557C163.259 85.5731 163.032 85.8462 162.747 86.0466Z" fill="#829BE5"/>
<path d="M162.216 59.8269L163.642 58.9968L163.569 84.2481L162.143 85.0709L162.216 59.8269Z" fill="#829BE5"/>
<path d="M115.209 29.435L116.636 28.605L160.84 54.133L159.413 54.963L115.209 29.435Z" fill="#829BE5"/>
<path d="M159.428 54.963L160.884 54.133C161.701 54.6654 162.382 55.3834 162.87 56.2285C163.358 57.0737 163.64 58.0221 163.693 58.9968L162.237 59.8269C162.185 58.8522 161.903 57.9037 161.414 57.0586C160.926 56.2135 160.246 55.4955 159.428 54.963Z" fill="#829BE5"/>
<path d="M159.428 54.963C160.246 55.4955 160.926 56.2134 161.415 57.0586C161.903 57.9037 162.185 58.8522 162.237 59.8269L162.165 85.0709C162.165 86.8548 160.898 87.5757 159.34 86.6728L115.114 61.1739C114.298 60.6442 113.618 59.9287 113.131 59.0859C112.644 58.243 112.363 57.2968 112.312 56.3246L112.385 31.0733C112.385 29.2894 113.651 28.5685 115.209 29.4641L159.428 54.963Z" fill="white" stroke="#829BE5" stroke-width="0.75" stroke-miterlimit="10"/>
<path d="M125.341 38.7696C125.551 38.9041 125.727 39.0864 125.853 39.3014C125.98 39.5165 126.054 39.7583 126.069 40.0074V47.9148C126.069 48.3662 125.749 48.5483 125.341 48.3225L119.14 44.7402C118.93 44.6056 118.754 44.4234 118.628 44.2083C118.501 43.9933 118.427 43.7514 118.412 43.5024V35.5949C118.412 35.1435 118.739 34.9542 119.14 35.1872L125.341 38.7696Z" fill="#EFCB5D" stroke="#829BE5" stroke-width="0.75" stroke-linejoin="round"/>
<path d="M126.542 56.8052L126.535 58.3706L118.361 53.6524L118.368 52.0869L126.542 56.8052Z" fill="#829BE5"/>
<path d="M134.723 58.1231V59.5575L118.375 50.121V48.6866L134.723 58.1231Z" fill="#829BE5"/>
<path d="M134.68 44.1431C134.89 44.2793 135.065 44.4628 135.192 44.6791C135.318 44.8953 135.392 45.1382 135.408 45.3882V53.2883C135.408 53.7398 135.088 53.9291 134.68 53.6961L128.478 50.1137C128.268 49.98 128.092 49.798 127.965 49.5828C127.838 49.3675 127.765 49.1252 127.751 48.8759V40.9758C127.751 40.5171 128.078 40.335 128.478 40.5607L134.68 44.1431Z" fill="#EFCB5D" stroke="#829BE5" stroke-width="0.75" stroke-linejoin="round"/>
<path d="M148.022 51.8685C148.232 52.0026 148.408 52.1847 148.535 52.3999C148.661 52.6151 148.735 52.8571 148.75 53.1063V61.0137C148.75 61.4652 148.43 61.6545 148.022 61.4215L141.813 57.8391C141.603 57.705 141.427 57.5229 141.3 57.3077C141.174 57.0925 141.1 56.8505 141.085 56.6013V48.7012C141.085 48.2424 141.405 48.0531 141.813 48.2861L148.022 51.8685Z" fill="#EFCB5D" stroke="#829BE5" stroke-width="0.75" stroke-linejoin="round"/>
<path d="M151.465 66.5693C152.078 66.9651 152.587 67.5023 152.949 68.1359C153.311 68.7694 153.516 69.4807 153.547 70.2099C153.547 71.5424 152.608 72.0739 151.45 71.4041C150.844 71.0101 150.339 70.4781 149.977 69.8517C149.615 69.2254 149.407 68.5223 149.369 67.7998C149.376 66.431 150.307 65.8994 151.465 66.5693ZM151.465 70.7196C152.302 71.2002 152.986 70.8143 152.986 69.8459C152.959 69.3203 152.808 68.8087 152.544 68.353C152.281 67.8974 151.914 67.5107 151.472 67.2246C150.628 66.7368 149.951 67.1227 149.944 68.0911C149.973 68.618 150.126 69.1306 150.39 69.5873C150.654 70.044 151.023 70.4319 151.465 70.7196Z" fill="#829BE5"/>
<path d="M157.339 57.2493C157.548 57.3843 157.723 57.5666 157.85 57.7816C157.976 57.9966 158.051 58.2382 158.067 58.4871V66.3946C158.067 66.8387 157.746 67.028 157.339 66.8023L151.13 63.2127C150.919 63.081 150.742 62.9005 150.616 62.6863C150.489 62.4721 150.416 62.2306 150.402 61.9821V54.0747C150.402 53.616 150.722 53.434 151.13 53.6597L157.339 57.2493Z" fill="#EFCB5D" stroke="#829BE5" stroke-width="0.75" stroke-linejoin="round"/>
<path d="M138.385 49.0579C138.451 49.1001 138.506 49.1568 138.546 49.2237C138.587 49.2906 138.611 49.366 138.618 49.4438V50.4778C138.618 50.6234 138.516 50.6817 138.392 50.6088L137.824 50.2812C137.759 50.2395 137.704 50.1827 137.665 50.1156C137.625 50.0485 137.603 49.9729 137.599 49.8953V48.8613C137.599 48.7157 137.701 48.6575 137.824 48.7303L138.385 49.0579Z" fill="#829BE5"/>
<path d="M138.378 51.5627C138.443 51.6048 138.499 51.6616 138.539 51.7285C138.579 51.7954 138.604 51.8707 138.61 51.9486V52.9898C138.61 53.1282 138.509 53.1864 138.385 53.1136L137.817 52.7859C137.756 52.7479 137.704 52.6969 137.665 52.6365C137.626 52.576 137.601 52.5077 137.591 52.4364V51.4025C137.591 51.2569 137.693 51.1986 137.817 51.2714L138.378 51.5627Z" fill="#829BE5"/>
<path d="M144.543 71.3676C144.634 71.4258 144.71 71.5051 144.765 71.5989C144.819 71.6927 144.85 71.7981 144.856 71.9065V74.3966C144.856 74.6005 144.717 74.6806 144.543 74.5787L130.458 66.4382C130.368 66.3764 130.294 66.2953 130.24 66.2008C130.185 66.1063 130.153 66.0008 130.145 65.8921V63.402C130.145 63.2054 130.283 63.1326 130.458 63.2272L144.543 71.3676Z" fill="#DE7C8A" stroke="#829BE5" stroke-width="0.75" stroke-linejoin="round"/>
<path d="M146.122 63.4748C146.731 63.8745 147.238 64.4127 147.599 65.0454C147.961 65.6781 148.168 66.3874 148.204 67.1154C148.204 68.4479 147.258 68.9794 146.108 68.3095C145.499 67.9168 144.993 67.3853 144.63 66.7588C144.267 66.1323 144.057 65.4285 144.019 64.7053C144.026 63.3583 144.965 62.8122 146.122 63.4748ZM146.122 67.6251C146.959 68.1129 147.651 67.727 147.651 66.7586C147.623 66.2324 147.47 65.7204 147.206 65.2647C146.941 64.809 146.572 64.4226 146.129 64.1374C145.292 63.6495 144.608 64.0354 144.608 65.0038C144.634 65.5298 144.784 66.0421 145.048 66.498C145.311 66.954 145.679 67.3404 146.122 67.6251Z" fill="#829BE5"/>
<path d="M157.011 69.7658C157.623 70.1633 158.13 70.701 158.492 71.3341C158.854 71.9673 159.06 72.6777 159.093 73.4064C159.093 74.7389 158.154 75.2704 156.997 74.6005C156.389 74.2078 155.883 73.6762 155.521 73.0496C155.159 72.4229 154.952 71.7191 154.915 70.9963C154.915 69.6347 155.861 69.1032 157.011 69.7658ZM157.011 73.9161C157.856 74.4039 158.54 74.018 158.547 73.0496C158.516 72.5241 158.363 72.0132 158.098 71.5579C157.834 71.1026 157.467 70.7157 157.026 70.4284C156.182 69.9405 155.497 70.3264 155.497 71.2948C155.526 71.8201 155.677 72.3313 155.941 72.7868C156.204 73.2423 156.57 73.6292 157.011 73.9161Z" fill="#829BE5"/>
<path d="M133.377 2.09398C130.706 0.55036 128.282 0.412017 126.542 1.42411L124.621 2.53814C126.367 1.52605 128.791 1.67167 131.463 3.20801C136.762 6.27341 141.049 13.7003 141.027 19.7947C141.027 22.8237 139.95 24.9498 138.225 25.9546L140.146 24.8406C141.871 23.8358 142.941 21.7096 142.949 18.6806C142.963 12.579 138.683 5.15938 133.377 2.09398Z" fill="#829BE5"/>
<path d="M131.463 3.208C136.762 6.2734 141.049 13.7003 141.027 19.7947C141.005 25.889 136.66 28.3501 131.397 25.2847C126.135 22.2193 121.804 14.7997 121.825 8.69805C121.847 2.59637 126.156 0.149884 131.463 3.208Z" fill="white" stroke="#829BE5" stroke-width="0.75" stroke-miterlimit="10"/>
<path d="M131.077 1.94835C127.903 0.113482 125.028 -0.0612722 122.946 1.14741L120.668 2.4726C122.743 1.26392 125.618 1.43866 128.791 3.27353C135.102 6.91415 140.19 15.739 140.168 22.9838C140.168 26.5808 138.887 29.1146 136.842 30.3088L139.12 28.9836C141.173 27.7894 142.439 25.2556 142.454 21.6586C142.475 14.4138 137.38 5.58897 131.077 1.94835Z" fill="#EFCB5D" stroke="#829BE5" stroke-width="0.75" stroke-linejoin="round"/>
<path d="M128.791 3.27354C135.102 6.91416 140.19 15.739 140.168 22.9838C140.146 30.2287 135.022 33.1776 128.719 29.537C122.415 25.8963 117.32 17.0642 117.342 9.81937C117.364 2.57454 122.488 -0.374361 128.791 3.27354Z" fill="white" stroke="#829BE5" stroke-width="0.75" stroke-miterlimit="10"/>
<path d="M137.934 21.6878C137.934 24.7459 136.798 26.8429 135.022 27.7312C133.377 28.5394 131.172 28.3428 128.762 26.9448C123.667 24.0323 119.584 16.9186 119.606 11.0863C119.606 7.61316 121.061 5.37053 123.347 4.75162C124.875 4.33659 126.761 4.66425 128.806 5.84381C133.857 8.74902 137.955 15.8628 137.934 21.6878Z" fill="#829BE5"/>
<path d="M137.934 21.6878C137.934 24.7459 136.798 26.8429 135.022 27.7312C133.486 28.1681 131.586 27.855 129.527 26.6609C124.431 23.7484 120.355 16.6273 120.377 10.8023C120.377 7.72966 121.527 5.62537 123.347 4.75162C124.875 4.33659 126.761 4.66425 128.806 5.84381C133.857 8.74902 137.955 15.8628 137.934 21.6878Z" fill="white" stroke="#829BE5" stroke-width="0.75" stroke-miterlimit="10"/>
<path d="M129.163 6.51368C129.214 6.5491 129.256 6.59573 129.286 6.64999C129.316 6.70425 129.334 6.76472 129.337 6.82678V8.38496C129.337 8.50146 129.264 8.55243 129.17 8.49418C129.119 8.45801 129.078 8.41121 129.048 8.3571C129.017 8.30299 128.999 8.2429 128.995 8.18109V6.61563C128.995 6.49913 129.075 6.45543 129.163 6.51368Z" fill="#9CA0DF"/>
<path d="M125.166 5.37781C125.235 5.42542 125.287 5.49456 125.312 5.5744L125.945 7.29278C125.996 7.41656 125.945 7.52578 125.887 7.53306C125.859 7.54305 125.828 7.54305 125.8 7.53306C125.733 7.48658 125.682 7.42043 125.654 7.34375L125.014 5.59625C124.963 5.46519 125.014 5.35597 125.072 5.34869C125.105 5.35016 125.138 5.36018 125.166 5.37781Z" fill="#9CA0DF"/>
<path d="M122.233 7.13987C122.265 7.16076 122.292 7.18803 122.313 7.21996L123.434 8.67621C123.473 8.7187 123.499 8.77132 123.509 8.828C123.52 8.88468 123.514 8.94312 123.492 8.99658C123.483 9.00627 123.472 9.01397 123.459 9.01923C123.447 9.02448 123.433 9.02718 123.42 9.02718C123.406 9.02718 123.393 9.02448 123.38 9.01923C123.368 9.01397 123.356 9.00627 123.347 8.99658C123.314 8.97398 123.285 8.94703 123.259 8.91649L122.146 7.46024C122.106 7.41807 122.079 7.36583 122.068 7.3093C122.056 7.25276 122.061 7.19412 122.08 7.13987C122.101 7.11986 122.128 7.10865 122.157 7.10865C122.185 7.10865 122.213 7.11986 122.233 7.13987Z" fill="#9CA0DF"/>
<path d="M122.437 12.113C122.488 12.1458 122.53 12.1911 122.56 12.2445C122.589 12.2979 122.604 12.3578 122.604 12.4188C122.604 12.5353 122.532 12.579 122.437 12.5207L121.149 11.7416C121.098 11.7062 121.055 11.6596 121.025 11.6053C120.995 11.551 120.977 11.4906 120.974 11.4285C120.974 11.312 121.054 11.2683 121.149 11.3266L122.437 12.113Z" fill="#9CA0DF"/>
<path d="M123.325 16.7074C123.394 16.755 123.445 16.8242 123.471 16.904C123.521 17.0351 123.471 17.137 123.412 17.1443L122.291 17.2462C122.263 17.2562 122.232 17.2562 122.204 17.2462C122.135 17.1972 122.082 17.1288 122.051 17.0496C122.007 16.9258 122.051 16.8166 122.117 16.8094L123.238 16.7074C123.266 16.7009 123.296 16.7009 123.325 16.7074Z" fill="#9CA0DF"/>
<path d="M125.771 21.1708C125.805 21.1912 125.835 21.2185 125.858 21.2509C125.896 21.2923 125.922 21.3436 125.932 21.399C125.943 21.4544 125.937 21.5116 125.916 21.564L125.268 22.5324C125.268 22.5761 125.181 22.5761 125.123 22.5324C125.09 22.5126 125.061 22.488 125.035 22.4596C124.997 22.4151 124.971 22.3617 124.96 22.3043C124.948 22.2469 124.952 22.1876 124.97 22.1319L125.625 21.1781C125.654 21.1271 125.712 21.1271 125.771 21.1708Z" fill="#9CA0DF"/>
<path d="M129.119 24.2945C129.168 24.3295 129.209 24.3752 129.238 24.4282C129.267 24.4811 129.283 24.54 129.286 24.6003V26.1657C129.286 26.2822 129.206 26.3259 129.112 26.2677C129.062 26.2319 129.02 26.185 128.991 26.1307C128.962 26.0764 128.946 26.0161 128.944 25.9546V24.3964C128.951 24.2799 129.024 24.2362 129.119 24.2945Z" fill="#9CA0DF"/>
<path d="M132.496 25.241C132.565 25.2886 132.616 25.3578 132.642 25.4376L133.282 27.1778C133.333 27.3089 133.282 27.4181 133.217 27.4254H133.137C133.067 27.3764 133.014 27.308 132.984 27.2288L132.343 25.4813C132.3 25.3575 132.343 25.2483 132.409 25.241H132.496Z" fill="#9CA0DF"/>
<path d="M134.935 23.7629C134.967 23.7838 134.994 23.8111 135.015 23.843L136.136 25.2993C136.174 25.3423 136.2 25.3945 136.211 25.4507C136.223 25.5069 136.219 25.5652 136.201 25.6196C136.181 25.6397 136.153 25.6509 136.125 25.6509C136.096 25.6509 136.069 25.6397 136.048 25.6196C136.016 25.597 135.986 25.5701 135.961 25.5396L134.847 24.0833C134.809 24.0403 134.783 23.9881 134.772 23.9319C134.76 23.8757 134.764 23.8174 134.782 23.7629C134.802 23.7429 134.83 23.7317 134.858 23.7317C134.887 23.7317 134.914 23.7429 134.935 23.7629Z" fill="#9CA0DF"/>
<path d="M137.133 21.0398C137.184 21.0752 137.226 21.1218 137.256 21.1761C137.287 21.2303 137.304 21.2908 137.307 21.3528C137.307 21.4693 137.227 21.513 137.133 21.4548L135.837 20.6684C135.789 20.6323 135.749 20.5863 135.72 20.5336C135.692 20.4809 135.674 20.4226 135.67 20.3626C135.67 20.2461 135.75 20.2024 135.844 20.2607L137.133 21.0398Z" fill="#9CA0DF"/>
<path d="M136.077 15.557C136.146 15.6046 136.198 15.6737 136.223 15.7536C136.274 15.8773 136.223 15.9866 136.165 15.9938L135.036 16.0958H134.956C134.887 16.0468 134.834 15.9784 134.804 15.8992C134.76 15.7754 134.804 15.6662 134.869 15.6516L135.99 15.557C136.018 15.547 136.049 15.547 136.077 15.557Z" fill="#9CA0DF"/>
<path d="M133.159 10.2417C133.193 10.2621 133.223 10.2894 133.246 10.3218C133.284 10.3631 133.31 10.4145 133.32 10.4699C133.331 10.5253 133.325 10.5825 133.304 10.6349L132.656 11.6033C132.656 11.6469 132.569 11.6469 132.511 11.6033C132.478 11.5834 132.449 11.5589 132.423 11.5305C132.343 11.4212 132.314 11.2756 132.365 11.2101L133.013 10.2417C133.042 10.2053 133.1 10.2053 133.159 10.2417Z" fill="#9CA0DF"/>
<path d="M128.952 16.7584C128.984 16.7756 129.02 16.7846 129.057 16.7846C129.094 16.7846 129.13 16.7756 129.163 16.7584L128.165 17.3336C128.134 17.3529 128.097 17.3631 128.06 17.3631C128.023 17.3631 127.986 17.3529 127.954 17.3336L128.952 16.7584Z" fill="#5D96EA"/>
<path d="M136.136 17.7341C136.23 17.785 136.289 17.9816 136.194 17.9962L128.566 17.4428C128.566 17.7923 128.26 17.9307 127.925 17.7413C127.618 17.5379 127.4 17.2257 127.314 16.8676L124.49 12.8775C124.359 12.7027 124.439 12.5353 124.57 12.6154C124.595 12.6277 124.617 12.645 124.635 12.6663L127.831 16.1832C127.881 16.1962 127.93 16.2158 127.976 16.2414C128.085 16.3054 128.182 16.3894 128.26 16.489L136.136 17.7122C136.137 17.7195 136.137 17.7268 136.136 17.7341ZM127.925 17.3336C128.093 17.4282 128.224 17.3336 128.224 17.1661C128.218 17.0625 128.189 16.9616 128.137 16.8717C128.085 16.7818 128.012 16.7055 127.925 16.6492C127.765 16.5545 127.627 16.6492 127.627 16.8239C127.634 16.926 127.665 17.0251 127.717 17.1134C127.769 17.2018 127.84 17.2771 127.925 17.3336Z" fill="#DE7C8A" stroke="#829BE5" stroke-width="0.75" stroke-linejoin="round"/>
<path d="M127.954 16.6492C128.041 16.7055 128.114 16.7818 128.166 16.8717C128.218 16.9616 128.248 17.0625 128.253 17.1661C128.253 17.3482 128.122 17.4283 127.954 17.3336C127.869 17.2771 127.798 17.2018 127.746 17.1134C127.694 17.0251 127.663 16.926 127.656 16.8239C127.656 16.6346 127.794 16.5545 127.954 16.6492Z" fill="white"/>
<path d="M159.995 30.7966L161.444 29.952L161.415 40.568L159.966 41.4126L159.995 30.7966Z" fill="#829BE5"/>
<path d="M156.312 19.6126L157.761 18.768L164.254 31.5757L162.805 32.4203L156.312 19.6126Z" fill="#829BE5"/>
<path d="M156.312 19.6126L162.805 32.4203L159.996 30.7966L159.966 41.4126L152.549 37.124L152.578 26.508L149.762 24.8842L156.312 19.6126Z" fill="#80C1F7" stroke="#829BE5" stroke-width="0.75" stroke-linecap="round" stroke-linejoin="round"/>
<path d="M11.3769 13.926C14.5504 12.0984 17.4255 11.9236 19.5 13.1323L21.7783 14.4575C19.7038 13.2488 16.8287 13.4236 13.6551 15.2512C7.35166 18.8918 2.2565 27.7166 2.27834 34.9687C2.27834 38.5657 3.5594 41.0995 5.61203 42.2937L3.32648 40.9685C1.28113 39.7744 0.00734874 37.2405 6.9927e-05 33.6363C-0.0217665 26.3914 5.0734 17.5666 11.3769 13.926Z" fill="#829BE5"/>
<path d="M13.6551 15.2512C7.35163 18.8918 2.25647 27.7166 2.27831 34.9687C2.30015 42.2209 7.42443 45.1625 13.7279 41.5219C20.0313 37.8812 25.1265 29.0491 25.1119 21.8043C25.0974 14.5594 19.9658 11.6105 13.6551 15.2512Z" fill="white" stroke="#829BE5" stroke-width="0.75" stroke-miterlimit="10"/>
<path d="M13.6624 17.8651C8.61086 20.7776 4.53473 27.8477 4.54928 33.6508C4.56384 39.454 8.66909 41.7985 13.7206 38.8861C18.7721 35.9736 22.8555 28.8962 22.8409 23.0931C22.8264 17.2899 18.7139 14.9454 13.6624 17.8651Z" fill="#80C1F7" stroke="#829BE5" stroke-width="0.75" stroke-linecap="round" stroke-linejoin="round"/>
<path d="M13.677 21.564C10.4015 23.4571 7.75929 28.037 7.76657 31.7941C7.77385 35.5512 10.4379 37.073 13.7134 35.1872C16.9888 33.3013 19.631 28.7142 19.6165 24.9498C19.6019 21.1854 16.9451 19.6709 13.677 21.564Z" fill="#DE7C8A" stroke="#829BE5" stroke-width="0.75" stroke-linejoin="round"/>
<path d="M13.6842 25.5468C12.9679 26.0106 12.3719 26.638 11.9455 27.3772C11.519 28.1165 11.2742 28.9466 11.2313 29.7991C11.2313 31.3573 12.3449 31.9834 13.6988 31.2043C14.4144 30.7392 15.0102 30.1117 15.4377 29.3728C15.8652 28.6339 16.1124 27.8046 16.159 26.9521C16.1517 25.3866 15.0454 24.7677 13.6842 25.5468Z" fill="#EFCB5D" stroke="#829BE5" stroke-width="0.75" stroke-linejoin="round"/>
<path d="M13.7498 28.5249C13.7296 28.5057 13.717 28.48 13.7141 28.4523C13.7112 28.4247 13.7184 28.3969 13.7342 28.374C13.75 28.3512 13.7735 28.3347 13.8004 28.3277C13.8273 28.3206 13.8558 28.3234 13.8808 28.3355L27.3466 36.141C27.4948 36.2216 27.6233 36.334 27.7229 36.4701C27.8226 36.6063 27.8908 36.7628 27.9228 36.9285C27.9548 37.0941 27.9498 37.2648 27.908 37.4283C27.8663 37.5917 27.7889 37.7439 27.6814 37.874C27.4907 38.0965 27.2213 38.2367 26.9297 38.2652C26.638 38.2937 26.3466 38.2083 26.1165 38.0269L13.7498 28.5249Z" fill="#829BE5"/>
<path d="M22.7099 35.4056L22.3387 36.9201C22.3089 37.0444 22.3059 37.1735 22.3297 37.299C22.3536 37.4245 22.4038 37.5436 22.477 37.6482L24.6606 40.8229L25.767 37.8157L22.7099 35.4056Z" fill="#EFCB5D" stroke="#829BE5" stroke-width="0.75" stroke-linejoin="round"/>
<path d="M23.7217 34.0804L25.3886 33.3014C25.6169 33.1995 25.8714 33.1715 26.1165 33.2213L28.9552 33.7965L26.6332 35.7333L23.7217 34.0804Z" fill="#EFCB5D" stroke="#829BE5" stroke-width="0.75" stroke-linejoin="round"/>
<path d="M86.3776 131.285C98.9602 131.285 109.16 125.668 109.16 118.739C109.16 111.811 98.9602 106.194 86.3776 106.194C73.7951 106.194 63.595 111.811 63.595 118.739C63.595 125.668 73.7951 131.285 86.3776 131.285Z" fill="#DAE3F8"/>
<path d="M77.1773 33.3378C74.6777 37.1583 72.3723 41.1024 70.2697 45.1552C70.2697 45.1552 68.9232 46.0435 68.9668 47.0483C69.0105 48.0531 67.6858 48.9123 68.3045 50.2084C68.7921 51.2205 71.2742 50.2521 72.3296 49.7788C72.6859 49.8338 73.047 49.8509 73.4069 49.8297C76.1656 49.6696 80.4382 44.7329 80.4382 44.7329L80.3363 31.0369C79.0222 31.3593 77.8875 32.1857 77.1773 33.3378Z" fill="#D47D70" stroke="#829BE5" stroke-width="0.75" stroke-linejoin="round"/>
<path d="M84.2305 15.79C84.2305 15.79 84.4925 12.8192 88.1829 12.0037C91.8733 11.1882 94.8867 13.2124 94.7338 16.0812C94.581 18.95 96.4735 18.9937 95.5782 22.2994C94.6829 25.6051 93.1616 26.974 93.5037 28.503C93.8458 30.0321 95.3307 28.8307 95.3307 28.8307C95.3307 28.8307 94.2098 32.0999 91.9024 32.231C89.595 32.3621 87.5351 30.3306 87.2439 27.7894C86.9528 25.2483 84.2305 15.79 84.2305 15.79Z" fill="#829BE5" stroke="#829BE5" stroke-width="0.75" stroke-linejoin="round"/>
<path d="M85.8246 15.2293C86.4814 14.8614 87.2199 14.664 87.9726 14.6551C88.7253 14.6462 89.4683 14.8261 90.1336 15.1784C92.4046 16.3943 92.9214 20.0932 92.128 21.28C91.3346 22.4669 85.8246 15.2293 85.8246 15.2293Z" fill="white" stroke="#829BE5" stroke-width="0.75" stroke-miterlimit="10"/>
<path d="M76.5877 108.99C75.9753 110.435 74.94 111.661 73.6179 112.507C71.4852 113.803 69.4326 116.686 72.4024 117.065C75.3721 117.443 77.6358 116.73 78.7204 115.179C79.8049 113.628 81.6319 113.723 82.1123 113.257C82.5927 112.791 82.3598 110.577 82.1123 109.405C81.8648 108.233 76.5877 108.99 76.5877 108.99Z" fill="#829BE5" stroke="#829BE5" stroke-width="0.75" stroke-linejoin="round"/>
<path d="M76.1947 57.1911C76.1947 57.1911 74.4914 61.5962 73.9382 71.4914C73.4578 79.9085 74.5424 89.4106 75.6269 97.7039C76.9225 107.57 75.5832 109.478 77.3156 110.533C79.048 111.589 82.4108 110.978 82.6146 109.55C82.8184 108.123 84.3906 100.085 83.852 93.9832C83.3133 87.8815 83.4152 84.5612 85.6207 78.1173C87.8262 71.6735 86.7926 61.6181 86.7926 61.6181L76.1947 57.1911Z" fill="#DAE3F8" stroke="#829BE5" stroke-width="0.75" stroke-miterlimit="10"/>
<path d="M91.0653 115.011C90.9346 116.922 90.6915 118.823 90.3374 120.705C89.7114 124.302 91.0653 126.814 92.8049 126.101C94.5446 125.387 96.2333 124.011 96.1095 121.586C95.9858 119.162 96.9611 116.147 96.1095 115.033C95.2579 113.919 91.0653 115.011 91.0653 115.011Z" fill="#829BE5" stroke="#829BE5" stroke-width="0.75" stroke-linejoin="round"/>
<path d="M80.0888 60.322C80.0529 64.5406 80.6969 68.7374 81.9959 72.7511C81.9959 72.7511 80.7075 78.8673 84.4561 92.4832C88.4886 107.046 90.1845 114.625 91.007 115.499C91.8295 116.373 94.8357 116.417 96.3424 115.332C97.8491 114.247 96.1968 98.1771 95.1923 92.9856C94.1879 87.7941 93.8021 87.481 95.0249 79.5954C96.2478 71.7098 95.3306 66.7076 92.965 60.9336L80.0888 60.322Z" fill="white" stroke="#829BE5" stroke-width="0.75" stroke-miterlimit="10"/>
<path d="M96.0295 46.0508C94.5227 50.536 92.623 55.3052 92.623 55.3052L93.5692 61.1302C93.5692 61.1302 92.5866 62.3753 89.2019 63.0598C87.8511 63.3246 86.4801 63.4732 85.104 63.5039C83.2007 63.5824 81.3178 63.087 79.6994 62.0822C78.0809 61.0773 76.8016 59.6092 76.0273 57.8682L77.7596 47.3978C77.7596 47.3978 75.6197 42.8834 76.3475 40.3496C77.0754 37.8157 79.7468 31.714 80.3582 31.0514C80.9696 30.3889 87.9791 31.4956 92.3245 33.8329C92.3245 33.8329 97.0339 36.5997 97.7909 38.5511C98.0966 39.3812 97.1722 42.6359 96.0295 46.0508Z" fill="#DF8F7F" stroke="#829BE5" stroke-width="0.75" stroke-linejoin="round"/>
<path d="M92.6228 55.3052L93.5691 61.1302C93.5691 61.1302 92.5864 62.3753 89.2018 63.0598C88.7942 59.3682 88.2046 53.2447 88.7068 52.3054C89.4347 50.9365 93.7438 45.3955 93.7438 45.3955L96.0512 46.0726C94.5226 50.536 92.6228 55.3052 92.6228 55.3052Z" fill="#829BE5" stroke="#829BE5" stroke-width="0.75" stroke-linejoin="round"/>
<path d="M90.3592 27.2142C89.7653 28.8255 89.7294 30.5896 90.2573 32.2237L92.3026 33.8183C92.3026 33.8183 89.0926 37.5172 85.6279 38.1871C82.1632 38.8569 81.9885 34.6265 82.862 31.2699C83.7354 27.9132 90.3592 27.2142 90.3592 27.2142Z" fill="white" stroke="#829BE5" stroke-width="0.75" stroke-miterlimit="10"/>
<path d="M90.3592 27.2142C90.3592 27.2142 89.4784 33.3814 85.7735 34.743C82.0686 36.1046 82.9202 30.9204 82.9202 30.9204L90.3592 27.2142Z" fill="#829BE5" stroke="#829BE5" stroke-width="0.75" stroke-linejoin="round"/>
<path d="M79.9723 24.7677C79.4687 24.4521 79.0368 24.0344 78.7046 23.5415C78.3723 23.0487 78.1471 22.4916 78.0434 21.9062C77.7814 19.9913 78.7713 19.8747 78.7713 19.8747C78.7713 19.8747 79.5792 15.7681 84.9728 15.2584C90.3664 14.7488 92.0114 18.3748 92.4118 20.6029C93.1397 24.8988 89.9588 30.7966 89.9588 30.7966L90.119 26.3186L85.5552 30.0175L79.9723 24.7677Z" fill="#829BE5" stroke="#829BE5" stroke-width="0.75" stroke-linejoin="round"/>
<path d="M79.5429 21.9936C79.5429 21.9936 80.1034 27.8841 82.2943 31.4592C82.6336 32.0111 83.1517 32.43 83.7623 32.6459C84.373 32.8619 85.0392 32.862 85.6498 32.646C86.8042 32.3048 87.8494 31.6678 88.6818 30.798C89.5142 29.9283 90.105 28.856 90.3956 27.6875C90.8065 27.511 91.142 27.1952 91.3431 26.7957C91.5441 26.3961 91.5978 25.9384 91.4947 25.5031C91.3419 23.9959 89.8133 23.9959 89.5221 25.5468C89.4804 25.7979 89.3878 26.0379 89.2501 26.2519C89.1125 26.466 88.9326 26.6498 88.7215 26.7919L88.3794 27.0176L87.5787 24.5857C87.5787 24.5857 81.7193 27.0104 79.5429 21.9936Z" fill="white" stroke="#829BE5" stroke-width="0.75" stroke-miterlimit="10"/>
<path d="M100.295 52.9971C100.258 52.8151 100.229 52.6112 100.207 52.4C100.186 52.1889 100.084 51.5117 99.9818 50.8273C100.106 51.5991 100.222 52.3345 100.295 52.9971Z" fill="white" stroke="#829BE5" stroke-width="0.75" stroke-miterlimit="10"/>
<path d="M99.5524 53.7252C98.6571 53.0626 97.1286 53.383 96.226 53.6597C95.782 53.798 95.4981 53.9218 95.4981 53.9218C94.677 54.8254 93.9615 55.8196 93.3654 56.8853C92.2638 58.709 91.0227 60.4447 89.6532 62.0768C89.1251 61.7962 88.5505 61.6136 87.9573 61.538C87.5712 61.473 87.1757 61.4934 86.7984 61.5978C86.4211 61.7022 86.0713 61.8881 85.7736 62.1423C85.3005 62.6374 84.9802 63.0962 85.5188 63.0452C86.0575 62.9942 86.7417 62.4481 87.0256 62.5646C87.3094 62.6811 87.7971 62.8632 87.7971 62.8632C87.1472 63.3017 86.4391 63.6473 85.6936 63.8898C84.8783 64.0718 83.721 64.6179 84.1359 65.1713C84.697 65.8024 85.427 66.2596 86.2395 66.4892C87.4973 66.619 88.763 66.3325 89.8425 65.6737C90.3357 65.4183 90.7873 65.0893 91.1818 64.698C92.0043 63.9699 95.7965 60.8317 97.9074 59.0405C98.942 58.2011 99.8795 57.2486 100.702 56.2008C100.732 55.9785 100.732 55.7533 100.702 55.531C100.642 55.168 100.509 54.8209 100.312 54.5106C100.114 54.2003 99.8558 53.9332 99.5524 53.7252Z" fill="white" stroke="#829BE5" stroke-width="0.75" stroke-miterlimit="10"/>
<path d="M101.43 51.7083C101.372 51.5336 101.321 51.337 101.263 51.1258C101.205 50.9147 101.03 50.2594 100.848 49.5968C100.848 49.5021 100.79 49.4075 100.768 49.3128C100.746 49.2181 100.673 48.9779 100.63 48.8322L100.586 48.6648C100.586 48.6065 100.55 48.5483 100.535 48.4973C100.52 48.4463 100.47 48.2643 100.47 48.2643C100.166 47.2356 99.9234 46.1902 99.7416 45.1334C99.1375 41.2889 97.871 37.8521 97.0994 37.6774C96.3279 37.5026 93.4018 43.6043 93.7002 45.0751C93.9113 46.1309 94.9667 49.5676 95.6655 51.8612V51.9049L96.0222 52.8588L95.9785 52.9243C95.7836 53.2509 95.6133 53.5917 95.469 53.9437C95.469 53.9437 95.7601 53.8199 96.1968 53.6815C97.0994 53.4048 98.628 53.0845 99.5233 53.7471C100.109 54.1684 100.504 54.8045 100.622 55.5164C100.652 55.7387 100.652 55.964 100.622 56.1863C100.622 56.1863 101.445 56.1863 101.547 55.5455C101.649 54.9048 102.107 54.8174 102.202 54.1475C102.296 53.4777 101.838 53.0262 101.43 51.7083Z" fill="#DF8F7F" stroke="#829BE5" stroke-width="0.75" stroke-linejoin="round"/>
<path d="M74.0474 39.5632L75.7725 53.1645C75.7797 53.2243 75.8023 53.2812 75.838 53.3297C75.8737 53.3782 75.9214 53.4166 75.9763 53.4412L83.983 57.1765C84.0395 57.1985 84.1009 57.2054 84.1609 57.1965C84.2209 57.1876 84.2776 57.1633 84.3254 57.1258C84.3731 57.0883 84.4103 57.039 84.4332 56.9828C84.4561 56.9266 84.464 56.8654 84.4561 56.8052L83.8447 43.7645C83.8409 43.7 83.82 43.6377 83.7842 43.584C83.7484 43.5302 83.6989 43.487 83.6409 43.4587L74.5496 39.1773C74.4904 39.1496 74.4248 39.1387 74.3598 39.1458C74.2948 39.1529 74.2331 39.1777 74.1812 39.2175C74.1294 39.2573 74.0895 39.3106 74.0659 39.3716C74.0423 39.4326 74.0359 39.4989 74.0474 39.5632Z" fill="#EFCB5D" stroke="#829BE5" stroke-width="0.75" stroke-miterlimit="10"/>
<path d="M73.5743 47.609C73.5743 47.609 74.0328 45.4246 74.142 44.995C74.2574 44.6417 74.4164 44.3042 74.6152 43.9902L75.081 46.2911C75.905 46.8366 76.8121 47.2448 77.7669 47.4998C78.7204 47.5944 80.3727 47.2522 80.4455 47.8347C80.5183 48.4172 79.4337 50.0628 78.4729 50.354C77.4688 50.573 76.4249 50.5253 75.4449 50.2157C75.4449 50.2157 73.9892 52.7714 71.8055 53.2738C69.6219 53.7762 67.5838 51.0894 68.5737 49.0215C69.5637 46.9537 72.2277 48.6866 73.5743 47.609Z" fill="white" stroke="#829BE5" stroke-width="0.75" stroke-miterlimit="10"/>
<path d="M89.4712 25.8235L86.4432 27.7458L85.9482 26.7846L89.9225 24.7459C89.9225 24.7459 89.5512 25.5614 89.4712 25.8235Z" fill="#EFCB5D" stroke="#829BE5" stroke-width="0.75" stroke-linejoin="round"/>
<path d="M86.4432 27.7531H85.9919L85.0383 27.7967L85.6279 27.1269L85.9482 26.7628C86.9235 27.0468 86.4432 27.7531 86.4432 27.7531Z" fill="white" stroke="#829BE5" stroke-width="0.75" stroke-linejoin="round"/>
<path d="M85.9919 27.7749L85.0383 27.8186L85.6279 27.1487C85.7323 27.2184 85.8194 27.311 85.8825 27.4196C85.9456 27.5281 85.983 27.6497 85.9919 27.7749Z" fill="#829BE5"/>
</svg>
