<svg width="227" height="243" viewBox="0 0 227 243" fill="none" xmlns="http://www.w3.org/2000/svg">
<g style="mix-blend-mode:multiply">
<path d="M209.795 175.669C218.807 180.875 218.854 189.328 209.898 194.535L133.379 239.092C124.433 244.308 109.885 244.298 100.873 239.092L23.8627 194.535C14.8505 189.328 14.8033 180.875 23.7494 175.669L100.268 131.112C109.215 125.896 123.772 125.896 132.775 131.112L209.795 175.669Z" fill="#DAE3F8"/>
</g>
<path d="M219.194 165.956L135.033 214.972C125.198 220.699 109.186 220.699 99.2764 214.972L14.5576 165.966C9.5791 163.079 7.08513 159.292 7.09458 155.553V160.826C7.09458 164.612 9.56965 168.399 14.5576 171.238L99.2197 220.235C109.129 225.972 125.132 225.972 134.976 220.235L219.194 171.238C224.087 168.399 226.534 164.659 226.544 160.93V155.657C226.544 159.377 224.097 163.107 219.194 165.956Z" fill="#829BE5"/>
<path d="M219.09 145.197C229 150.924 229.057 160.22 219.213 165.956L135.033 214.972C125.198 220.699 109.186 220.699 99.2765 214.972L14.5576 165.966C4.65739 160.229 4.6007 150.943 14.4443 145.207L98.6152 96.191C108.459 90.5113 124.471 90.5113 134.371 96.191L219.09 145.197Z" fill="white" stroke="#829BE5" stroke-width="0.75" stroke-miterlimit="10"/>
<path d="M46.1099 79.2088L44.0033 77.9782L43.871 31.9255L45.9777 33.1561L46.1099 79.2088Z" fill="#80C1F7" stroke="#829BE5" stroke-width="0.75" stroke-linecap="round" stroke-linejoin="round"/>
<path d="M45.9777 33.1561L43.871 31.9255L74.6865 14.1008L76.7931 15.3219L45.9777 33.1561Z" fill="#80C1F7" stroke="#829BE5" stroke-width="0.75" stroke-linecap="round" stroke-linejoin="round"/>
<path d="M46.3366 33.3549L76.4436 15.9467L76.5664 61.1758L46.4594 78.5935L46.3366 33.3549Z" fill="white"/>
<path d="M76.0846 16.5525L76.2074 60.9676L46.8184 78.0066L46.6861 33.5915L76.0846 16.5525ZM76.7931 15.3219L45.9776 33.1466L46.1099 79.2088L76.9253 61.3746L76.7931 15.3219Z" fill="#829BE5"/>
<path d="M48.9723 33.9418L73.8174 19.5627L73.9308 56.9066L49.0857 71.2762L48.9723 33.9418Z" fill="white" stroke="#829BE5" stroke-width="0.75" stroke-miterlimit="10"/>
<path d="M56.9265 30.3257V27.0031L54.6781 25.7252V23.0557L56.7564 24.1065V24.5987L58.7497 25.8198V31.4143L56.9265 30.3257Z" fill="#829BE5"/>
<path d="M55.415 23.0273L62.4339 18.7865L63.8132 19.5532L56.7375 23.6994L55.415 23.0273Z" fill="white"/>
<path d="M62.4434 19.1935L63.0952 19.5627L56.7092 23.2924L56.1235 22.9989L62.4245 19.2125M62.4245 18.3889L54.6687 23.122L56.747 24.1727L64.5123 19.6101L62.4245 18.4362V18.3889Z" fill="#829BE5"/>
<path d="M57.106 24.3904V24.3052L64.1911 20.1496C64.2188 20.228 64.272 20.2947 64.3422 20.3389L66.0615 21.3518L58.7592 25.4033L57.106 24.3904Z" fill="white"/>
<path d="M64.1155 20.6135H64.1628L65.3436 21.3139L58.7309 24.9679L57.7011 24.3336L64.0872 20.5472M64.4934 19.4775L56.7281 24.0402V24.5324L58.712 25.7536L66.7512 21.295L64.4934 19.9603V19.4775Z" fill="#829BE5"/>
<path d="M59.0992 26.0281L66.4205 21.9671V26.3783L59.0992 30.7801V26.0281Z" fill="white"/>
<path d="M66.071 22.5635V26.1795L59.4582 30.1553V26.2363L66.071 22.5635ZM66.7795 21.3613L58.7402 25.8198V31.4143L66.7795 26.5771V21.3613Z" fill="#829BE5"/>
<path d="M56.7564 24.5987L64.5217 20.036V19.5438L56.7564 24.1065V24.5987Z" fill="#829BE5"/>
<path d="M65.4097 31.7456L65.4191 33.7051L57.4177 38.334L57.4082 36.3746L65.4097 31.7456Z" fill="#829BE5"/>
<path d="M64.7768 36.5639V37.6146L56.1046 42.6317V41.5809L64.7768 36.5639Z" fill="#829BE5"/>
<path d="M54.8954 42.272L54.9048 43.3227L52.1464 44.9225V43.8717L54.8954 42.272Z" fill="#829BE5"/>
<path d="M70.7093 33.1277V34.1784L66.1182 36.8384V35.7877L70.7093 33.1277Z" fill="#829BE5"/>
<path d="M64.7862 42.4329L64.7957 43.4836L56.1235 48.5007V47.4499L64.7862 42.4329Z" fill="#829BE5"/>
<path d="M64.7957 45.3768L64.8051 46.4276L56.133 51.4352V50.3844L64.7957 45.3768Z" fill="#829BE5"/>
<path d="M64.7862 39.4984V40.5491L56.1141 45.5662V44.5154L64.7862 39.4984Z" fill="#829BE5"/>
<path d="M54.9048 45.2159L54.9143 46.2667L52.1558 47.857V46.8062L54.9048 45.2159Z" fill="#829BE5"/>
<path d="M70.7377 45.1023L70.7472 46.1531L66.156 48.8036V47.7528L70.7377 45.1023Z" fill="#829BE5"/>
<path d="M70.7283 41.9406L70.7377 42.9914L66.1466 45.6419V44.5912L70.7283 41.9406Z" fill="#829BE5"/>
<path d="M70.7187 39.0061L70.7282 40.0569L66.137 42.7074V41.6567L70.7187 39.0061Z" fill="#829BE5"/>
<path d="M70.7187 36.0716V37.1224L66.1276 39.7729V38.7222L70.7187 36.0716Z" fill="#829BE5"/>
<path d="M54.9144 48.1504V49.2012L52.1653 50.7915V49.7407L54.9144 48.1504Z" fill="#829BE5"/>
<path d="M54.9238 51.0849V52.1357L52.1748 53.726V52.6752L54.9238 51.0849Z" fill="#829BE5"/>
<path d="M64.824 54.4075V55.4583L56.1613 60.4753L56.1518 59.4246L64.824 54.4075Z" fill="#829BE5"/>
<path d="M64.8146 51.473V52.5143L56.1518 57.5314L56.1424 56.4806L64.8146 51.473Z" fill="#829BE5"/>
<path d="M64.8051 48.5291L64.8146 49.5798L56.1424 54.5968L56.133 53.5461L64.8051 48.5291Z" fill="#829BE5"/>
<path d="M54.9333 54.2466V55.2973L52.1842 56.8877L52.1748 55.8369L54.9333 54.2466Z" fill="#829BE5"/>
<path d="M54.9427 57.1811V58.2318L52.1937 59.8222L52.1842 58.7714L54.9427 57.1811Z" fill="#829BE5"/>
<path d="M70.7472 48.0368V49.0876L66.1655 51.7381L66.156 50.6873L70.7472 48.0368Z" fill="#829BE5"/>
<path d="M54.9521 60.1156V61.1663L52.2031 62.7661L52.1937 61.7154L54.9521 60.1156Z" fill="#829BE5"/>
<path d="M70.7566 50.9713V52.0221L66.1749 54.6821L66.1655 53.6313L70.7566 50.9713Z" fill="#829BE5"/>
<path d="M83.7554 1.29309L84.5772 1.77585C83.0658 0.895502 80.9686 1.01857 78.6541 2.36276L77.8228 1.87998C80.1373 0.53579 82.2155 0.412735 83.7554 1.29309Z" fill="#829BE5"/>
<path d="M72.7687 22.1186L71.9469 21.6358C70.4543 20.7649 69.519 18.9095 69.519 16.2874C69.519 10.9864 73.2127 4.53996 77.8133 1.87998L78.6446 2.36276C74.044 5.02274 70.3315 11.4692 70.3409 16.7607C70.3598 19.3923 71.2856 21.2477 72.7687 22.1186Z" fill="#829BE5"/>
<path d="M78.6541 2.36276C83.2547 -0.306692 86.9861 1.83265 87.005 7.09582C87.0239 12.359 83.3019 18.8338 78.7013 21.4938C74.1007 24.1538 70.3692 22.0239 70.3503 16.7607C70.3314 11.4976 74.0535 5.02274 78.6541 2.36276Z" fill="#9BF7B8" stroke="#829BE5" stroke-width="0.75" stroke-linecap="round" stroke-linejoin="round"/>
<path d="M82.036 5.92202L82.5367 6.73611C81.485 8.04149 80.5879 9.46459 79.8632 10.9769C79.6176 11.4881 79.3814 11.9898 79.1736 12.4726C78.6106 13.7539 78.1187 15.0654 77.6999 16.401L77.4449 17.2435L74.8187 16.7891L75.4138 15.3881L76.9631 15.6627C77.3814 14.405 77.8639 13.1696 78.4084 11.9614C78.5879 11.5544 78.7863 11.1284 79.0036 10.7024C79.8203 8.99336 80.8383 7.38846 82.036 5.92202Z" fill="white" stroke="white" stroke-miterlimit="10"/>
<path d="M146.917 37.8986L148.806 36.8195C149.222 36.6256 149.683 36.5471 150.14 36.5921C150.596 36.637 151.033 36.8038 151.404 37.0751L149.514 38.1542C149.143 37.8848 148.706 37.7191 148.25 37.6742C147.794 37.6293 147.333 37.7067 146.917 37.8986Z" fill="#829BE5"/>
<path d="M211.221 111.753L209.332 112.832C209.7 112.57 209.992 112.214 210.18 111.802C210.367 111.39 210.443 110.936 210.399 110.485L212.288 109.406C212.335 109.857 212.261 110.312 212.073 110.725C211.886 111.138 211.591 111.493 211.221 111.753Z" fill="#829BE5"/>
<path d="M210.531 77.6658L212.383 76.5867L212.288 109.415L210.437 110.485L210.531 77.6658Z" fill="#829BE5"/>
<path d="M149.524 38.1542L151.376 37.075L208.746 70.2633L206.894 71.3424L149.524 38.1542Z" fill="#829BE5"/>
<path d="M206.913 71.3424L208.803 70.2633C209.864 70.9555 210.747 71.8889 211.381 72.9877C212.015 74.0865 212.38 75.3195 212.449 76.5867L210.56 77.6658C210.491 76.3987 210.125 75.1656 209.492 74.0668C208.858 72.9681 207.975 72.0347 206.913 71.3424Z" fill="#829BE5"/>
<path d="M206.913 71.3424C207.975 72.0347 208.858 72.9681 209.492 74.0668C210.125 75.1656 210.491 76.3986 210.56 77.6658L210.465 110.485C210.465 112.804 208.821 113.741 206.8 112.567L149.401 79.417C148.341 78.7284 147.459 77.7982 146.827 76.7024C146.195 75.6067 145.831 74.3765 145.764 73.1126L145.859 40.2841C145.859 37.9649 147.502 37.0277 149.524 38.192L206.913 71.3424Z" fill="white" stroke="#829BE5" stroke-width="0.75" stroke-miterlimit="10"/>
<path d="M162.674 50.2898C162.947 50.4647 163.174 50.7016 163.338 50.9812C163.502 51.2608 163.598 51.5752 163.619 51.899V62.1792C163.619 62.7661 163.203 63.0028 162.674 62.7093L154.625 58.052C154.353 57.877 154.125 57.6401 153.961 57.3605C153.797 57.0809 153.701 56.7665 153.681 56.4427V46.1625C153.681 45.5756 154.106 45.3295 154.625 45.6324L162.674 50.2898Z" fill="#EFCB5D" stroke="#829BE5" stroke-width="0.75" stroke-linejoin="round"/>
<path d="M164.233 73.7374L164.223 75.7726L153.614 69.6385L153.624 67.6033L164.233 73.7374Z" fill="#829BE5"/>
<path d="M174.851 75.4507V77.3156L153.633 65.0475V63.1826L174.851 75.4507Z" fill="#829BE5"/>
<path d="M174.794 57.2758C175.067 57.4528 175.294 57.6914 175.459 57.9726C175.623 58.2537 175.719 58.5694 175.739 58.8945V69.1652C175.739 69.7521 175.323 69.9982 174.794 69.6953L166.745 65.038C166.472 64.8642 166.243 64.6276 166.079 64.3477C165.915 64.0679 165.819 63.7529 165.801 63.4288V53.158C165.801 52.5616 166.226 52.325 166.745 52.6184L174.794 57.2758Z" fill="#EFCB5D" stroke="#829BE5" stroke-width="0.75" stroke-linejoin="round"/>
<path d="M192.11 67.3193C192.383 67.4937 192.611 67.7305 192.775 68.0102C192.94 68.2899 193.035 68.6046 193.055 68.9286V79.2088C193.055 79.7957 192.639 80.0418 192.11 79.7389L184.052 75.0815C183.779 74.9072 183.551 74.6704 183.387 74.3907C183.222 74.111 183.127 73.7962 183.107 73.4723V63.2016C183.107 62.6052 183.523 62.3591 184.052 62.662L192.11 67.3193Z" fill="#EFCB5D" stroke="#829BE5" stroke-width="0.75" stroke-linejoin="round"/>
<path d="M196.578 86.4314C197.374 86.946 198.035 87.6444 198.505 88.4681C198.975 89.2917 199.241 90.2165 199.28 91.1645C199.28 92.8968 198.062 93.5878 196.56 92.717C195.772 92.2047 195.117 91.5132 194.648 90.6988C194.178 89.8845 193.907 88.9704 193.858 88.0312C193.867 86.2516 195.076 85.5606 196.578 86.4314ZM196.578 91.8271C197.665 92.4519 198.553 91.9502 198.553 90.6912C198.518 90.0079 198.321 89.3428 197.979 88.7504C197.638 88.158 197.161 87.6552 196.588 87.2834C195.492 86.6492 194.614 87.1509 194.604 88.4099C194.642 89.0949 194.84 89.7613 195.183 90.3551C195.527 90.9488 196.004 91.4531 196.578 91.8271Z" fill="#829BE5"/>
<path d="M204.202 74.3148C204.474 74.4903 204.701 74.7273 204.865 75.0068C205.029 75.2863 205.126 75.6005 205.147 75.924V86.2043C205.147 86.7817 204.731 87.0278 204.202 86.7344L196.144 82.0676C195.87 81.8964 195.641 81.6617 195.477 81.3833C195.312 81.1048 195.217 80.7908 195.199 80.4678V70.1876C195.199 69.5912 195.615 69.3545 196.144 69.648L204.202 74.3148Z" fill="#EFCB5D" stroke="#829BE5" stroke-width="0.75" stroke-linejoin="round"/>
<path d="M179.603 63.6654C179.688 63.7202 179.76 63.7939 179.812 63.8809C179.864 63.9679 179.896 64.0658 179.905 64.1671V65.5113C179.905 65.7006 179.773 65.7764 179.612 65.6817L178.875 65.2557C178.79 65.2015 178.719 65.1277 178.668 65.0405C178.617 64.9532 178.588 64.855 178.582 64.754V63.4098C178.582 63.2205 178.715 63.1448 178.875 63.2394L179.603 63.6654Z" fill="#829BE5"/>
<path d="M179.593 66.9218C179.678 66.9766 179.75 67.0503 179.803 67.1373C179.855 67.2243 179.887 67.3222 179.895 67.4235V68.7771C179.895 68.957 179.763 69.0327 179.603 68.938L178.866 68.5121C178.786 68.4626 178.719 68.3963 178.668 68.3177C178.618 68.2392 178.585 68.1504 178.573 68.0577V66.7135C178.573 66.5242 178.705 66.4484 178.866 66.5431L179.593 66.9218Z" fill="#829BE5"/>
<path d="M187.594 92.6696C187.713 92.7453 187.812 92.8484 187.883 92.9703C187.953 93.0922 187.994 93.2293 188.001 93.3701V96.6075C188.001 96.8726 187.821 96.9767 187.594 96.8442L169.315 86.261C169.199 86.1807 169.102 86.0752 169.031 85.9523C168.961 85.8295 168.919 85.6923 168.909 85.5511V82.3137C168.909 82.0581 169.088 81.9634 169.315 82.0865L187.594 92.6696Z" fill="#DE7C8A" stroke="#829BE5" stroke-width="0.75" stroke-linejoin="round"/>
<path d="M189.644 82.4083C190.435 82.928 191.092 83.6277 191.562 84.4502C192.031 85.2728 192.3 86.1949 192.346 87.1414C192.346 88.8737 191.118 89.5647 189.626 88.6938C188.836 88.1832 188.179 87.4923 187.707 86.6778C187.236 85.8632 186.964 84.9483 186.914 84.0081C186.924 82.2569 188.142 81.5469 189.644 82.4083ZM189.644 87.804C190.731 88.4383 191.628 87.9366 191.628 86.6776C191.592 85.9935 191.394 85.3278 191.051 84.7353C190.708 84.1429 190.229 83.6406 189.654 83.2698C188.568 82.6355 187.68 83.1372 187.68 84.3962C187.713 85.08 187.908 85.746 188.25 86.3388C188.592 86.9315 189.07 87.4339 189.644 87.804Z" fill="#829BE5"/>
<path d="M203.777 90.5871C204.57 91.1039 205.229 91.8029 205.699 92.6261C206.169 93.4492 206.436 94.3728 206.479 95.3201C206.479 97.0524 205.26 97.7435 203.758 96.8726C202.969 96.3621 202.313 95.6709 201.843 94.8562C201.373 94.0415 201.104 93.1266 201.056 92.1869C201.056 90.4167 202.284 89.7257 203.777 90.5871ZM203.777 95.9828C204.873 96.617 205.761 96.1153 205.77 94.8563C205.73 94.1731 205.531 93.5088 205.188 92.9169C204.845 92.3251 204.368 91.8221 203.796 91.4485C202.7 90.8143 201.812 91.316 201.812 92.575C201.849 93.2579 202.046 93.9224 202.387 94.5146C202.729 95.1068 203.205 95.6098 203.777 95.9828Z" fill="#829BE5"/>
<path d="M173.103 2.60888C169.636 0.602064 166.49 0.422209 164.233 1.738L161.739 3.18632C164.006 1.87053 167.152 2.05985 170.619 4.0572C177.496 8.04244 183.06 17.6979 183.032 25.621C183.032 29.5589 181.634 32.3231 179.395 33.6294L181.889 32.1811C184.128 30.8747 185.516 28.1106 185.526 24.1727C185.545 16.2401 179.99 6.59412 173.103 2.60888Z" fill="#829BE5"/>
<path d="M170.619 4.05719C177.496 8.04243 183.06 17.6979 183.032 25.621C183.003 33.5442 177.364 36.7437 170.534 32.7585C163.704 28.7733 158.083 19.1273 158.111 11.1946C158.139 3.26203 163.732 0.081416 170.619 4.05719Z" fill="white" stroke="#829BE5" stroke-width="0.75" stroke-miterlimit="10"/>
<path d="M170.118 2.41956C165.999 0.0340942 162.268 -0.193099 159.566 1.37828L156.609 3.10112C159.301 1.52974 163.033 1.75692 167.152 4.14239C175.342 8.87545 181.945 20.3484 181.917 29.7672C181.917 34.4435 180.254 37.7377 177.6 39.2901L180.557 37.5673C183.221 36.0148 184.864 32.7206 184.883 28.0444C184.912 18.6256 178.299 7.15262 170.118 2.41956Z" fill="#EFCB5D" stroke="#829BE5" stroke-width="0.75" stroke-linejoin="round"/>
<path d="M167.152 4.14239C175.342 8.87546 181.945 20.3484 181.917 29.7672C181.889 39.186 175.238 43.0198 167.057 38.2867C158.876 33.5537 152.264 22.0712 152.292 12.6524C152.32 3.23365 158.971 -0.600136 167.152 4.14239Z" fill="white" stroke="#829BE5" stroke-width="0.75" stroke-miterlimit="10"/>
<path d="M179.017 28.0822C179.017 32.058 177.543 34.7843 175.238 35.9391C173.103 36.9899 170.241 36.7343 167.114 34.9168C160.501 31.1303 155.201 21.8819 155.23 14.2996C155.23 9.78421 157.119 6.86864 160.085 6.06401C162.069 5.52445 164.516 5.95042 167.171 7.48393C173.727 11.2609 179.045 20.5093 179.017 28.0822Z" fill="#829BE5"/>
<path d="M179.017 28.0822C179.017 32.058 177.543 34.7843 175.238 35.9391C173.245 36.5071 170.779 36.1001 168.106 34.5476C161.493 30.7612 156.203 21.5033 156.231 13.9304C156.231 9.93567 157.724 7.19995 160.085 6.06401C162.069 5.52445 164.516 5.95042 167.171 7.48393C173.727 11.2609 179.045 20.5093 179.017 28.0822Z" fill="white" stroke="#829BE5" stroke-width="0.75" stroke-miterlimit="10"/>
<path d="M167.633 8.35481C167.7 8.40086 167.755 8.46148 167.794 8.53203C167.833 8.60257 167.856 8.68119 167.86 8.76186V10.7876C167.86 10.9391 167.766 11.0053 167.643 10.9296C167.578 10.8826 167.523 10.8217 167.484 10.7514C167.445 10.681 167.422 10.6029 167.416 10.5226V8.48735C167.416 8.33589 167.52 8.27908 167.633 8.35481Z" fill="#9CA0DF"/>
<path d="M162.447 6.8781C162.537 6.94 162.603 7.02989 162.636 7.13369L163.458 9.36769C163.524 9.52862 163.458 9.67061 163.382 9.68008C163.346 9.69307 163.306 9.69307 163.269 9.68008C163.182 9.61965 163.116 9.53365 163.08 9.43396L162.249 7.16208C162.183 6.99169 162.249 6.84971 162.324 6.84024C162.368 6.84215 162.41 6.85518 162.447 6.8781Z" fill="#9CA0DF"/>
<path d="M158.64 9.1689C158.682 9.19605 158.717 9.23151 158.744 9.27303L160.199 11.1663C160.249 11.2215 160.283 11.2899 160.297 11.3636C160.31 11.4373 160.302 11.5133 160.274 11.5828C160.262 11.5954 160.247 11.6054 160.231 11.6122C160.215 11.619 160.198 11.6225 160.18 11.6225C160.162 11.6225 160.145 11.619 160.129 11.6122C160.112 11.6054 160.098 11.5954 160.085 11.5828C160.043 11.5534 160.005 11.5183 159.972 11.4786L158.527 9.58541C158.476 9.53058 158.441 9.46267 158.426 9.38917C158.411 9.31567 158.416 9.23943 158.442 9.1689C158.468 9.14288 158.504 9.12831 158.541 9.12831C158.578 9.12831 158.614 9.14288 158.64 9.1689Z" fill="#9CA0DF"/>
<path d="M158.905 15.6343C158.971 15.677 159.026 15.7358 159.064 15.8053C159.102 15.8748 159.122 15.9526 159.122 16.0318C159.122 16.1833 159.027 16.2401 158.905 16.1644L157.232 15.1515C157.166 15.1054 157.111 15.0448 157.072 14.9743C157.033 14.9037 157.01 14.8251 157.006 14.7444C157.006 14.593 157.11 14.5362 157.232 14.6119L158.905 15.6343Z" fill="#9CA0DF"/>
<path d="M160.057 21.6074C160.147 21.6693 160.213 21.7592 160.246 21.863C160.312 22.0334 160.246 22.1659 160.17 22.1754L158.716 22.3079C158.679 22.3209 158.639 22.3209 158.602 22.3079C158.512 22.2442 158.443 22.1553 158.404 22.0523C158.347 21.8914 158.404 21.7494 158.489 21.7399L159.944 21.6074C159.981 21.5989 160.02 21.5989 160.057 21.6074Z" fill="#9CA0DF"/>
<path d="M163.231 27.4101C163.276 27.4367 163.314 27.4721 163.345 27.5143C163.394 27.568 163.428 27.6348 163.441 27.7068C163.454 27.7789 163.447 27.8532 163.42 27.9213L162.579 29.1803C162.579 29.2371 162.466 29.2371 162.39 29.1803C162.348 29.1545 162.31 29.1226 162.277 29.0856C162.228 29.0278 162.194 28.9583 162.179 28.8837C162.164 28.8092 162.169 28.732 162.192 28.6597L163.042 27.4196C163.08 27.3533 163.156 27.3533 163.231 27.4101Z" fill="#9CA0DF"/>
<path d="M167.577 31.4711C167.641 31.5167 167.693 31.5761 167.731 31.645C167.768 31.7138 167.79 31.7903 167.794 31.8687V33.9039C167.794 34.0554 167.69 34.1122 167.567 34.0364C167.502 33.9899 167.449 33.929 167.411 33.8584C167.374 33.7878 167.353 33.7094 167.35 33.6294V31.6036C167.359 31.4522 167.454 31.3954 167.577 31.4711Z" fill="#9CA0DF"/>
<path d="M171.96 32.7017C172.05 32.7636 172.116 32.8535 172.149 32.9573L172.98 35.2197C173.046 35.3901 172.98 35.5321 172.895 35.5415H172.791C172.702 35.4778 172.633 35.3889 172.593 35.286L171.762 33.0141C171.705 32.8532 171.762 32.7112 171.847 32.7017H171.96Z" fill="#9CA0DF"/>
<path d="M175.125 30.7801C175.166 30.8072 175.202 30.8427 175.229 30.8842L176.683 32.7774C176.733 32.8333 176.767 32.9012 176.782 32.9743C176.796 33.0474 176.792 33.1231 176.768 33.1939C176.742 33.2199 176.706 33.2345 176.669 33.2345C176.632 33.2345 176.597 33.2199 176.57 33.1939C176.528 33.1645 176.49 33.1295 176.457 33.0898L175.011 31.1966C174.962 31.1407 174.928 31.0728 174.913 30.9997C174.898 30.9266 174.903 30.8509 174.926 30.7801C174.953 30.7541 174.988 30.7395 175.026 30.7395C175.063 30.7395 175.098 30.7541 175.125 30.7801Z" fill="#9CA0DF"/>
<path d="M177.978 27.2398C178.044 27.2858 178.099 27.3464 178.138 27.417C178.177 27.4875 178.2 27.5661 178.204 27.6468C178.204 27.7982 178.101 27.855 177.978 27.7793L176.296 26.757C176.234 26.71 176.182 26.6503 176.145 26.5817C176.107 26.5131 176.085 26.4373 176.079 26.3594C176.079 26.2079 176.183 26.1511 176.306 26.2269L177.978 27.2398Z" fill="#9CA0DF"/>
<path d="M176.608 20.1117C176.697 20.1736 176.764 20.2635 176.797 20.3673C176.863 20.5282 176.797 20.6702 176.721 20.6797L175.257 20.8122H175.153C175.063 20.7485 174.994 20.6596 174.955 20.5567C174.898 20.3957 174.955 20.2537 175.04 20.2348L176.495 20.1117C176.531 20.0988 176.571 20.0988 176.608 20.1117Z" fill="#9CA0DF"/>
<path d="M172.82 13.2015C172.864 13.228 172.903 13.2635 172.933 13.3056C172.983 13.3594 173.016 13.4262 173.03 13.4982C173.043 13.5702 173.036 13.6446 173.009 13.7126L172.168 14.9716C172.168 15.0284 172.055 15.0284 171.979 14.9716C171.937 14.9459 171.899 14.914 171.866 14.877C171.762 14.735 171.724 14.5457 171.79 14.4605L172.631 13.2015C172.669 13.1541 172.744 13.1541 172.82 13.2015Z" fill="#9CA0DF"/>
<path d="M167.36 21.6737C167.402 21.696 167.449 21.7077 167.497 21.7077C167.544 21.7077 167.591 21.696 167.634 21.6737L166.339 22.4215C166.298 22.4465 166.251 22.4598 166.202 22.4598C166.154 22.4598 166.107 22.4465 166.065 22.4215L167.36 21.6737Z" fill="#5D96EA"/>
<path d="M176.683 22.9421C176.806 23.0084 176.882 23.264 176.759 23.2829L166.859 22.5635C166.859 23.0178 166.462 23.1977 166.028 22.9516C165.629 22.6871 165.346 22.2812 165.234 21.8156L161.569 16.6282C161.399 16.401 161.502 16.1833 161.673 16.2874C161.705 16.3034 161.734 16.326 161.758 16.3537L165.905 20.9258C165.971 20.9428 166.034 20.9683 166.094 21.0016C166.235 21.0848 166.36 21.194 166.462 21.3234L176.683 22.9137C176.685 22.9231 176.685 22.9327 176.683 22.9421ZM166.028 22.4215C166.245 22.5445 166.415 22.4215 166.415 22.2038C166.408 22.069 166.369 21.9378 166.302 21.821C166.235 21.7041 166.141 21.605 166.028 21.5317C165.82 21.4086 165.64 21.5317 165.64 21.7588C165.65 21.8916 165.69 22.0204 165.757 22.1352C165.824 22.2501 165.917 22.348 166.028 22.4215Z" fill="#DE7C8A" stroke="#829BE5" stroke-width="0.75" stroke-linejoin="round"/>
<path d="M166.065 21.5317C166.178 21.605 166.272 21.7041 166.34 21.821C166.407 21.9378 166.446 22.069 166.453 22.2038C166.453 22.4404 166.283 22.5445 166.065 22.4215C165.954 22.348 165.862 22.2501 165.795 22.1353C165.728 22.0204 165.688 21.8916 165.678 21.7589C165.678 21.5127 165.857 21.4086 166.065 21.5317Z" fill="white"/>
<path d="M207.65 39.9244L209.53 38.8263L209.492 52.6279L207.612 53.726L207.65 39.9244Z" fill="#829BE5"/>
<path d="M202.87 25.3844L204.75 24.2863L213.176 40.9372L211.297 42.0353L202.87 25.3844Z" fill="#829BE5"/>
<path d="M202.87 25.3844L211.297 42.0353L207.65 39.9244L207.612 53.726L197.986 48.1504L198.024 34.3488L194.368 32.2379L202.87 25.3844Z" fill="#80C1F7" stroke="#829BE5" stroke-width="0.75" stroke-linecap="round" stroke-linejoin="round"/>
<path d="M14.7654 17.9913C18.8842 15.6153 22.6157 15.3881 25.308 16.9595L28.2649 18.6824C25.5726 17.111 21.8411 17.3382 17.7223 19.7142C9.54135 24.4472 2.9286 35.9202 2.95694 45.3484C2.95694 50.0247 4.61957 53.3189 7.28356 54.8714L4.31727 53.1485C1.66272 51.5961 0.00953755 48.3019 9.07546e-05 43.6161C-0.0282496 34.1973 6.58451 22.7244 14.7654 17.9913Z" fill="#829BE5"/>
<path d="M17.7223 19.7142C9.54133 24.4472 2.92858 35.9202 2.95692 45.3484C2.98526 54.7767 9.6358 58.601 17.8167 53.8679C25.9976 49.1349 32.6104 37.6525 32.5915 28.2337C32.5726 18.8149 25.9126 14.9811 17.7223 19.7142Z" fill="white" stroke="#829BE5" stroke-width="0.75" stroke-miterlimit="10"/>
<path d="M17.7318 23.1125C11.1757 26.899 5.8855 36.0906 5.9044 43.6351C5.92329 51.1796 11.2513 54.2277 17.8074 50.4412C24.3634 46.6548 29.6631 37.4537 29.6442 29.9092C29.6253 22.3647 24.2879 19.3166 17.7318 23.1125Z" fill="#80C1F7" stroke="#829BE5" stroke-width="0.75" stroke-linecap="round" stroke-linejoin="round"/>
<path d="M17.7506 27.9213C13.4996 30.3825 10.0704 36.3367 10.0798 41.2212C10.0893 46.1057 13.5468 48.0842 17.7979 45.6324C22.0489 43.1807 25.4781 37.217 25.4592 32.323C25.4403 27.4291 21.9922 25.4601 17.7506 27.9213Z" fill="#DE7C8A" stroke="#829BE5" stroke-width="0.75" stroke-linejoin="round"/>
<path d="M17.7601 33.0993C16.8304 33.7022 16.057 34.5178 15.5035 35.4789C14.95 36.4401 14.6323 37.5192 14.5765 38.6275C14.5765 40.6532 16.0219 41.4673 17.779 40.4545C18.7078 39.8498 19.4811 39.034 20.0359 38.0733C20.5907 37.1127 20.9115 36.0345 20.972 34.9262C20.9626 32.891 19.5267 32.0864 17.7601 33.0993Z" fill="#EFCB5D" stroke="#829BE5" stroke-width="0.75" stroke-linejoin="round"/>
<path d="M17.8451 36.9709C17.8189 36.946 17.8025 36.9126 17.7988 36.8766C17.7951 36.8407 17.8043 36.8046 17.8249 36.7748C17.8454 36.7451 17.8759 36.7237 17.9107 36.7146C17.9456 36.7054 17.9827 36.709 18.0151 36.7248L35.4917 46.8725C35.684 46.9772 35.8508 47.1234 35.9801 47.3004C36.1094 47.4774 36.198 47.6808 36.2396 47.8962C36.2811 48.1116 36.2745 48.3335 36.2204 48.546C36.1662 48.7585 36.0658 48.9564 35.9262 49.1254C35.6787 49.4148 35.3291 49.597 34.9506 49.6341C34.5721 49.6711 34.1939 49.5601 33.8952 49.3242L17.8451 36.9709Z" fill="#829BE5"/>
<path d="M29.4741 45.9164L28.9923 47.8854C28.9536 48.0469 28.9497 48.2148 28.9806 48.378C29.0116 48.5412 29.0767 48.6959 29.1718 48.832L32.0058 52.9592L33.4417 49.0497L29.4741 45.9164Z" fill="#EFCB5D" stroke="#829BE5" stroke-width="0.75" stroke-linejoin="round"/>
<path d="M30.7872 44.1936L32.9505 43.1807C33.2469 43.0483 33.5772 43.0119 33.8952 43.0766L37.5794 43.8244L34.5659 46.3424L30.7872 44.1936Z" fill="#EFCB5D" stroke="#829BE5" stroke-width="0.75" stroke-linejoin="round"/>
<path d="M112.105 170.566C128.435 170.566 141.674 163.264 141.674 154.256C141.674 145.248 128.435 137.946 112.105 137.946C95.7749 137.946 82.5367 145.248 82.5367 154.256C82.5367 163.264 95.7749 170.566 112.105 170.566Z" fill="#DAE3F8"/>
<path d="M100.164 43.228C96.9204 48.195 93.9282 53.3227 91.1994 58.5916C91.1994 58.5916 89.4518 59.7464 89.5085 61.0528C89.5651 62.3591 87.8458 63.4761 88.6488 65.161C89.2817 66.4768 92.5031 65.2178 93.8729 64.6025C94.3353 64.6741 94.8039 64.6963 95.271 64.6688C98.8513 64.4606 104.397 58.0425 104.397 58.0425L104.264 40.2367C102.559 40.6558 101.086 41.7303 100.164 43.228Z" fill="#D47D70" stroke="#829BE5" stroke-width="0.75" stroke-linejoin="round"/>
<path d="M109.318 20.4147C109.318 20.4147 109.658 16.5525 114.448 15.4923C119.238 14.4321 123.148 17.0637 122.95 20.7933C122.752 24.523 125.208 24.5798 124.046 28.8774C122.884 33.175 120.91 34.9546 121.354 36.9425C121.798 38.9304 123.725 37.3685 123.725 37.3685C123.725 37.3685 122.27 41.6188 119.275 41.7892C116.281 41.9596 113.607 39.3185 113.229 36.0148C112.851 32.7112 109.318 20.4147 109.318 20.4147Z" fill="#829BE5" stroke="#829BE5" stroke-width="0.75" stroke-linejoin="round"/>
<path d="M111.387 19.6858C112.24 19.2075 113.198 18.9508 114.175 18.9392C115.152 18.9277 116.116 19.1615 116.98 19.6195C119.927 21.2004 120.598 26.0092 119.568 27.5521C118.538 29.0951 111.387 19.6858 111.387 19.6858Z" fill="white" stroke="#829BE5" stroke-width="0.75" stroke-miterlimit="10"/>
<path d="M99.3992 141.581C98.6044 143.46 97.2608 145.054 95.5449 146.153C92.777 147.838 90.113 151.587 93.9673 152.079C97.8216 152.571 100.76 151.644 102.167 149.627C103.575 147.611 105.946 147.734 106.569 147.128C107.193 146.522 106.891 143.645 106.569 142.121C106.248 140.597 99.3992 141.581 99.3992 141.581Z" fill="#829BE5" stroke="#829BE5" stroke-width="0.75" stroke-linejoin="round"/>
<path d="M98.8891 74.2391C98.8891 74.2391 96.6785 79.9661 95.9605 92.8305C95.3371 103.773 96.7446 116.127 98.1522 126.909C99.8337 139.735 98.0955 142.215 100.344 143.588C102.592 144.961 106.957 144.165 107.221 142.31C107.486 140.455 109.526 130.004 108.827 122.071C108.128 114.139 108.26 109.822 111.123 101.445C113.985 93.0672 112.644 79.9945 112.644 79.9945L98.8891 74.2391Z" fill="#DAE3F8" stroke="#829BE5" stroke-width="0.75" stroke-miterlimit="10"/>
<path d="M118.189 149.41C118.019 151.894 117.704 154.365 117.244 156.812C116.432 161.488 118.189 164.754 120.447 163.827C122.705 162.899 124.896 161.11 124.736 157.958C124.575 154.805 125.841 150.886 124.736 149.438C123.63 147.99 118.189 149.41 118.189 149.41Z" fill="#829BE5" stroke="#829BE5" stroke-width="0.75" stroke-linejoin="round"/>
<path d="M103.943 78.3095C103.897 83.794 104.732 89.2501 106.418 94.4682C106.418 94.4682 104.746 102.42 109.611 120.121C114.845 139.054 117.046 148.908 118.113 150.044C119.181 151.18 123.082 151.237 125.038 149.826C126.993 148.416 124.849 127.524 123.545 120.775C122.242 114.025 121.741 113.618 123.328 103.366C124.915 93.1145 123.725 86.6113 120.655 79.1047L103.943 78.3095Z" fill="white" stroke="#829BE5" stroke-width="0.75" stroke-miterlimit="10"/>
<path d="M124.632 59.7559C122.676 65.587 120.211 71.7873 120.211 71.7873L121.439 79.3602C121.439 79.3602 120.163 80.9789 115.771 81.8688C114.017 82.2131 112.238 82.4063 110.452 82.4462C107.982 82.5482 105.538 81.9042 103.438 80.5978C101.337 79.2914 99.6768 77.3828 98.6718 75.1194L100.92 61.5071C100.92 61.5071 98.1428 55.6381 99.0875 52.3439C100.032 49.0497 103.499 41.1171 104.293 40.2557C105.086 39.3943 114.183 40.8331 119.823 43.8717C119.823 43.8717 125.935 47.4689 126.918 50.0058C127.315 51.0849 126.115 55.3163 124.632 59.7559Z" fill="#DF8F7F" stroke="#829BE5" stroke-width="0.75" stroke-linejoin="round"/>
<path d="M120.211 71.7873L121.439 79.3602C121.439 79.3602 120.163 80.9789 115.771 81.8688C115.241 77.0694 114.476 69.1084 115.128 67.8873C116.073 66.1077 121.665 58.9039 121.665 58.9039L124.66 59.7843C122.676 65.587 120.211 71.7873 120.211 71.7873Z" fill="#829BE5" stroke="#829BE5" stroke-width="0.75" stroke-linejoin="round"/>
<path d="M117.273 35.267C116.502 37.3618 116.455 39.6552 117.14 41.7797L119.795 43.8528C119.795 43.8528 115.629 48.6616 111.132 49.5325C106.635 50.4033 106.409 44.9035 107.542 40.5396C108.676 36.1758 117.273 35.267 117.273 35.267Z" fill="white" stroke="#829BE5" stroke-width="0.75" stroke-miterlimit="10"/>
<path d="M117.273 35.267C117.273 35.267 116.13 43.2848 111.321 45.055C106.513 46.8252 107.618 40.0853 107.618 40.0853L117.273 35.267Z" fill="#829BE5" stroke="#829BE5" stroke-width="0.75" stroke-linejoin="round"/>
<path d="M103.792 32.0864C103.138 31.6761 102.578 31.133 102.147 30.4922C101.716 29.8515 101.423 29.1272 101.289 28.3662C100.949 25.8766 102.233 25.7252 102.233 25.7252C102.233 25.7252 103.282 20.3863 110.282 19.7236C117.282 19.061 119.417 23.7751 119.937 26.6718C120.881 32.2568 116.753 39.9243 116.753 39.9243L116.961 34.1027L111.038 38.9115L103.792 32.0864Z" fill="#829BE5" stroke="#829BE5" stroke-width="0.75" stroke-linejoin="round"/>
<path d="M103.235 28.4798C103.235 28.4798 103.962 36.1379 106.806 40.7858C107.246 41.5033 107.918 42.0478 108.711 42.3286C109.503 42.6094 110.368 42.6095 111.16 42.3288C112.659 41.8851 114.015 41.0569 115.096 39.9262C116.176 38.7954 116.943 37.4014 117.32 35.8823C117.853 35.6529 118.288 35.2423 118.549 34.7228C118.81 34.2034 118.88 33.6084 118.746 33.0425C118.548 31.083 116.564 31.083 116.186 33.0993C116.132 33.4257 116.012 33.7377 115.833 34.016C115.654 34.2943 115.421 34.5332 115.147 34.718L114.703 35.0114L113.664 31.8497C113.664 31.8497 106.059 35.002 103.235 28.4798Z" fill="white" stroke="#829BE5" stroke-width="0.75" stroke-miterlimit="10"/>
<path d="M130.168 68.7866C130.12 68.5499 130.082 68.2849 130.054 68.0104C130.026 67.7358 129.894 66.8555 129.761 65.9657C129.922 66.9691 130.073 67.9252 130.168 68.7866Z" fill="white" stroke="#829BE5" stroke-width="0.75" stroke-miterlimit="10"/>
<path d="M129.204 69.7332C128.042 68.8718 126.058 69.2883 124.887 69.648C124.31 69.8278 123.942 69.9888 123.942 69.9888C122.876 71.1635 121.948 72.4561 121.174 73.8415C119.744 76.2125 118.134 78.469 116.356 80.5908C115.671 80.226 114.925 79.9887 114.155 79.8903C113.654 79.8058 113.141 79.8324 112.651 79.9682C112.161 80.1039 111.707 80.3455 111.321 80.676C110.707 81.3197 110.291 81.9161 110.99 81.8498C111.69 81.7836 112.578 81.0736 112.946 81.2251C113.314 81.3765 113.947 81.6132 113.947 81.6132C113.104 82.1834 112.185 82.6326 111.217 82.9479C110.159 83.1846 108.657 83.8945 109.196 84.6139C109.924 85.4343 110.871 86.0288 111.926 86.3273C113.558 86.496 115.201 86.1236 116.602 85.2671C117.242 84.935 117.828 84.5073 118.34 83.9986C119.408 83.052 124.329 78.9721 127.069 76.6435C128.412 75.5522 129.628 74.3139 130.696 72.9517C130.735 72.6626 130.735 72.3698 130.696 72.0808C130.618 71.6089 130.446 71.1577 130.189 70.7543C129.933 70.3509 129.598 70.0035 129.204 69.7332Z" fill="white" stroke="#829BE5" stroke-width="0.75" stroke-miterlimit="10"/>
<path d="M131.641 67.1111C131.566 66.8839 131.499 66.6283 131.424 66.3538C131.348 66.0793 131.122 65.2273 130.885 64.3659C130.885 64.2428 130.81 64.1198 130.782 63.9967C130.753 63.8737 130.659 63.5613 130.602 63.372L130.545 63.1542C130.545 63.0785 130.498 63.0028 130.479 62.9365C130.46 62.8703 130.394 62.6336 130.394 62.6336C130.001 61.2963 129.685 59.9372 129.45 58.5632C128.665 53.5651 127.022 49.097 126.02 48.8698C125.019 48.6427 121.221 56.5753 121.609 58.4874C121.883 59.86 123.252 64.328 124.159 67.3099V67.3667L124.622 68.6067L124.566 68.6919C124.313 69.1166 124.092 69.5596 123.904 70.0172C123.904 70.0172 124.282 69.8563 124.849 69.6764C126.02 69.3167 128.004 68.9002 129.166 69.7616C129.926 70.3093 130.439 71.1363 130.593 72.0619C130.631 72.3509 130.631 72.6437 130.593 72.9327C130.593 72.9327 131.66 72.9328 131.792 72.0997C131.925 71.2667 132.52 71.1531 132.643 70.2822C132.765 69.4114 132.17 68.8244 131.641 67.1111Z" fill="#DF8F7F" stroke="#829BE5" stroke-width="0.75" stroke-linejoin="round"/>
<path d="M96.1023 51.3216L98.3412 69.0043C98.3506 69.082 98.3799 69.1559 98.4263 69.219C98.4726 69.282 98.5344 69.332 98.6057 69.364L108.997 74.2201C109.071 74.2488 109.15 74.2577 109.228 74.2462C109.306 74.2346 109.38 74.2029 109.442 74.1542C109.504 74.1054 109.552 74.0414 109.582 73.9683C109.611 73.8952 109.621 73.8156 109.611 73.7374L108.818 56.7835C108.813 56.6997 108.786 56.6187 108.739 56.5488C108.693 56.479 108.628 56.4227 108.553 56.3859L96.7541 50.8199C96.6773 50.7838 96.5921 50.7697 96.5078 50.7789C96.4234 50.7881 96.3433 50.8204 96.276 50.8721C96.2087 50.9239 96.1569 50.9932 96.1263 51.0725C96.0957 51.1517 96.0874 51.2379 96.1023 51.3216Z" fill="#EFCB5D" stroke="#829BE5" stroke-width="0.75" stroke-miterlimit="10"/>
<path d="M95.4883 61.7816C95.4883 61.7816 96.0834 58.9418 96.2251 58.3833C96.3749 57.924 96.5812 57.4852 96.8392 57.077L97.4438 60.0683C98.5133 60.7775 99.6905 61.3082 100.93 61.6397C102.167 61.7627 104.312 61.3178 104.406 62.0751C104.501 62.8324 103.093 64.9717 101.846 65.3504C100.543 65.6351 99.188 65.5731 97.9161 65.1705C97.9161 65.1705 96.0267 68.4931 93.1927 69.1463C90.3587 69.7994 87.7136 66.3065 88.9983 63.6181C90.2831 60.9297 93.7406 63.1826 95.4883 61.7816Z" fill="white" stroke="#829BE5" stroke-width="0.75" stroke-miterlimit="10"/>
<path d="M116.12 33.459L112.19 35.958L111.548 34.7085L116.706 32.058C116.706 32.058 116.224 33.1182 116.12 33.459Z" fill="#EFCB5D" stroke="#829BE5" stroke-width="0.75" stroke-linejoin="round"/>
<path d="M112.19 35.9675H111.604L110.367 36.0243L111.132 35.1534L111.548 34.6801C112.814 35.0493 112.19 35.9675 112.19 35.9675Z" fill="white" stroke="#829BE5" stroke-width="0.75" stroke-linejoin="round"/>
<path d="M111.604 35.9959L110.367 36.0527L111.132 35.1818C111.268 35.2724 111.381 35.3929 111.462 35.534C111.544 35.6751 111.593 35.8331 111.604 35.9959Z" fill="#829BE5"/>
</svg>
